<mxfile host="app.diagrams.net" modified="2020-07-11T10:29:39.807Z" agent="5.0 (Windows NT 10.0; Win64; x64) AppleWebKit/537.36 (KHTML, like Gecko) Chrome/83.0.4103.116 Safari/537.36" etag="8Mfd4r_XTvaLLyCR2TcD" version="13.4.2" type="github">
  <diagram id="C9LCrjpuuzuaD5Lrdw8H" name="Page-1">
    <mxGraphModel dx="1452" dy="558" grid="1" gridSize="10" guides="1" tooltips="1" connect="1" arrows="1" fold="1" page="1" pageScale="1" pageWidth="827" pageHeight="1169" math="0" shadow="0">
      <root>
        <mxCell id="0" />
        <mxCell id="1" parent="0" />
        <mxCell id="-qnN5XRqpwDW-Cq90tK5-43" value="" style="endArrow=classic;startArrow=classic;html=1;exitX=0.5;exitY=0;exitDx=0;exitDy=0;" edge="1" parent="1" source="-qnN5XRqpwDW-Cq90tK5-217" target="-qnN5XRqpwDW-Cq90tK5-166">
          <mxGeometry width="50" height="50" relative="1" as="geometry">
            <mxPoint x="449" y="811" as="sourcePoint" />
            <mxPoint x="499" y="761" as="targetPoint" />
          </mxGeometry>
        </mxCell>
        <mxCell id="-qnN5XRqpwDW-Cq90tK5-44" value="n" style="edgeLabel;html=1;align=center;verticalAlign=middle;resizable=0;points=[];" vertex="1" connectable="0" parent="-qnN5XRqpwDW-Cq90tK5-43">
          <mxGeometry x="0.5882" y="2" relative="1" as="geometry">
            <mxPoint as="offset" />
          </mxGeometry>
        </mxCell>
        <mxCell id="-qnN5XRqpwDW-Cq90tK5-45" value="1" style="edgeLabel;html=1;align=center;verticalAlign=middle;resizable=0;points=[];" vertex="1" connectable="0" parent="-qnN5XRqpwDW-Cq90tK5-43">
          <mxGeometry x="-0.4706" relative="1" as="geometry">
            <mxPoint as="offset" />
          </mxGeometry>
        </mxCell>
        <mxCell id="-qnN5XRqpwDW-Cq90tK5-46" value="meetings" style="edgeLabel;html=1;align=center;verticalAlign=middle;resizable=0;points=[];" vertex="1" connectable="0" parent="-qnN5XRqpwDW-Cq90tK5-43">
          <mxGeometry x="-0.121" y="-3" relative="1" as="geometry">
            <mxPoint as="offset" />
          </mxGeometry>
        </mxCell>
        <mxCell id="-qnN5XRqpwDW-Cq90tK5-47" value="" style="endArrow=classic;startArrow=classic;html=1;entryX=0.75;entryY=0;entryDx=0;entryDy=0;exitX=0;exitY=0.5;exitDx=0;exitDy=0;" edge="1" parent="1" source="-qnN5XRqpwDW-Cq90tK5-185" target="-qnN5XRqpwDW-Cq90tK5-217">
          <mxGeometry width="50" height="50" relative="1" as="geometry">
            <mxPoint x="69" y="725" as="sourcePoint" />
            <mxPoint x="66" y="640.328" as="targetPoint" />
          </mxGeometry>
        </mxCell>
        <mxCell id="-qnN5XRqpwDW-Cq90tK5-48" value="n" style="edgeLabel;html=1;align=center;verticalAlign=middle;resizable=0;points=[];" vertex="1" connectable="0" parent="-qnN5XRqpwDW-Cq90tK5-47">
          <mxGeometry x="-0.6487" y="3" relative="1" as="geometry">
            <mxPoint x="1" as="offset" />
          </mxGeometry>
        </mxCell>
        <mxCell id="-qnN5XRqpwDW-Cq90tK5-49" value="1" style="edgeLabel;html=1;align=center;verticalAlign=middle;resizable=0;points=[];" vertex="1" connectable="0" parent="-qnN5XRqpwDW-Cq90tK5-47">
          <mxGeometry x="0.5249" y="2" relative="1" as="geometry">
            <mxPoint as="offset" />
          </mxGeometry>
        </mxCell>
        <mxCell id="-qnN5XRqpwDW-Cq90tK5-50" value="articles" style="edgeLabel;html=1;align=center;verticalAlign=middle;resizable=0;points=[];" vertex="1" connectable="0" parent="-qnN5XRqpwDW-Cq90tK5-47">
          <mxGeometry x="-0.1401" y="2" relative="1" as="geometry">
            <mxPoint as="offset" />
          </mxGeometry>
        </mxCell>
        <mxCell id="-qnN5XRqpwDW-Cq90tK5-51" value="" style="endArrow=classic;startArrow=classic;html=1;exitX=1;exitY=0.5;exitDx=0;exitDy=0;entryX=0;entryY=0.5;entryDx=0;entryDy=0;" edge="1" parent="1" source="-qnN5XRqpwDW-Cq90tK5-218" target="-qnN5XRqpwDW-Cq90tK5-238">
          <mxGeometry width="50" height="50" relative="1" as="geometry">
            <mxPoint x="129" y="784" as="sourcePoint" />
            <mxPoint x="639" y="844" as="targetPoint" />
          </mxGeometry>
        </mxCell>
        <mxCell id="-qnN5XRqpwDW-Cq90tK5-52" value="1" style="edgeLabel;html=1;align=center;verticalAlign=middle;resizable=0;points=[];" vertex="1" connectable="0" parent="-qnN5XRqpwDW-Cq90tK5-51">
          <mxGeometry x="0.75" y="-1" relative="1" as="geometry">
            <mxPoint as="offset" />
          </mxGeometry>
        </mxCell>
        <mxCell id="-qnN5XRqpwDW-Cq90tK5-53" value="n" style="edgeLabel;html=1;align=center;verticalAlign=middle;resizable=0;points=[];" vertex="1" connectable="0" parent="-qnN5XRqpwDW-Cq90tK5-51">
          <mxGeometry x="-0.8395" relative="1" as="geometry">
            <mxPoint as="offset" />
          </mxGeometry>
        </mxCell>
        <mxCell id="-qnN5XRqpwDW-Cq90tK5-54" value="llocations&lt;br&gt;" style="edgeLabel;html=1;align=center;verticalAlign=middle;resizable=0;points=[];" vertex="1" connectable="0" parent="-qnN5XRqpwDW-Cq90tK5-51">
          <mxGeometry x="-0.0738" y="-1" relative="1" as="geometry">
            <mxPoint x="-16.93" as="offset" />
          </mxGeometry>
        </mxCell>
        <mxCell id="-qnN5XRqpwDW-Cq90tK5-55" value="" style="endArrow=classic;startArrow=classic;html=1;exitX=0.25;exitY=0;exitDx=0;exitDy=0;entryX=1;entryY=0.5;entryDx=0;entryDy=0;" edge="1" parent="1" source="-qnN5XRqpwDW-Cq90tK5-172" target="-qnN5XRqpwDW-Cq90tK5-160">
          <mxGeometry width="50" height="50" relative="1" as="geometry">
            <mxPoint x="89" y="745" as="sourcePoint" />
            <mxPoint x="86" y="660.328" as="targetPoint" />
          </mxGeometry>
        </mxCell>
        <mxCell id="-qnN5XRqpwDW-Cq90tK5-56" value="n" style="edgeLabel;html=1;align=center;verticalAlign=middle;resizable=0;points=[];" vertex="1" connectable="0" parent="-qnN5XRqpwDW-Cq90tK5-55">
          <mxGeometry x="-0.4836" y="3" relative="1" as="geometry">
            <mxPoint as="offset" />
          </mxGeometry>
        </mxCell>
        <mxCell id="-qnN5XRqpwDW-Cq90tK5-57" value="1" style="edgeLabel;html=1;align=center;verticalAlign=middle;resizable=0;points=[];" vertex="1" connectable="0" parent="-qnN5XRqpwDW-Cq90tK5-55">
          <mxGeometry x="0.6395" y="-1" relative="1" as="geometry">
            <mxPoint x="1" as="offset" />
          </mxGeometry>
        </mxCell>
        <mxCell id="-qnN5XRqpwDW-Cq90tK5-58" value="" style="endArrow=classic;startArrow=classic;html=1;entryX=0.25;entryY=0;entryDx=0;entryDy=0;exitX=0;exitY=0.5;exitDx=0;exitDy=0;" edge="1" parent="1" source="-qnN5XRqpwDW-Cq90tK5-139" target="-qnN5XRqpwDW-Cq90tK5-217">
          <mxGeometry width="50" height="50" relative="1" as="geometry">
            <mxPoint x="399" y="70" as="sourcePoint" />
            <mxPoint x="96" y="670.328" as="targetPoint" />
            <Array as="points">
              <mxPoint x="80" y="79" />
            </Array>
          </mxGeometry>
        </mxCell>
        <mxCell id="-qnN5XRqpwDW-Cq90tK5-59" value="n" style="edgeLabel;html=1;align=center;verticalAlign=middle;resizable=0;points=[];" vertex="1" connectable="0" parent="-qnN5XRqpwDW-Cq90tK5-58">
          <mxGeometry x="-0.8579" y="-5" relative="1" as="geometry">
            <mxPoint as="offset" />
          </mxGeometry>
        </mxCell>
        <mxCell id="-qnN5XRqpwDW-Cq90tK5-60" value="m" style="edgeLabel;html=1;align=center;verticalAlign=middle;resizable=0;points=[];" vertex="1" connectable="0" parent="-qnN5XRqpwDW-Cq90tK5-58">
          <mxGeometry x="0.7459" y="3" relative="1" as="geometry">
            <mxPoint as="offset" />
          </mxGeometry>
        </mxCell>
        <mxCell id="-qnN5XRqpwDW-Cq90tK5-61" value="contacts&lt;br&gt;" style="edgeLabel;html=1;align=center;verticalAlign=middle;resizable=0;points=[];" vertex="1" connectable="0" parent="-qnN5XRqpwDW-Cq90tK5-58">
          <mxGeometry x="0.6379" y="1" relative="1" as="geometry">
            <mxPoint y="-1" as="offset" />
          </mxGeometry>
        </mxCell>
        <mxCell id="-qnN5XRqpwDW-Cq90tK5-62" value="" style="endArrow=classic;startArrow=classic;html=1;entryX=1;entryY=0.5;entryDx=0;entryDy=0;exitX=0;exitY=0.5;exitDx=0;exitDy=0;" edge="1" parent="1" source="-qnN5XRqpwDW-Cq90tK5-143" target="-qnN5XRqpwDW-Cq90tK5-156">
          <mxGeometry width="50" height="50" relative="1" as="geometry">
            <mxPoint x="399" y="111" as="sourcePoint" />
            <mxPoint x="129" y="52" as="targetPoint" />
          </mxGeometry>
        </mxCell>
        <mxCell id="-qnN5XRqpwDW-Cq90tK5-63" value="n" style="edgeLabel;html=1;align=center;verticalAlign=middle;resizable=0;points=[];" vertex="1" connectable="0" parent="-qnN5XRqpwDW-Cq90tK5-62">
          <mxGeometry x="0.6943" relative="1" as="geometry">
            <mxPoint as="offset" />
          </mxGeometry>
        </mxCell>
        <mxCell id="-qnN5XRqpwDW-Cq90tK5-64" value="m" style="edgeLabel;html=1;align=center;verticalAlign=middle;resizable=0;points=[];" vertex="1" connectable="0" parent="-qnN5XRqpwDW-Cq90tK5-62">
          <mxGeometry x="-0.5105" y="-2" relative="1" as="geometry">
            <mxPoint as="offset" />
          </mxGeometry>
        </mxCell>
        <mxCell id="-qnN5XRqpwDW-Cq90tK5-65" value="custemor" style="edgeLabel;html=1;align=center;verticalAlign=middle;resizable=0;points=[];" vertex="1" connectable="0" parent="-qnN5XRqpwDW-Cq90tK5-62">
          <mxGeometry x="-0.1009" y="-5" relative="1" as="geometry">
            <mxPoint x="1" as="offset" />
          </mxGeometry>
        </mxCell>
        <mxCell id="-qnN5XRqpwDW-Cq90tK5-66" value="" style="endArrow=classic;startArrow=classic;html=1;entryX=0.25;entryY=0;entryDx=0;entryDy=0;exitX=0.25;exitY=1;exitDx=0;exitDy=0;" edge="1" parent="1" source="-qnN5XRqpwDW-Cq90tK5-138" target="-qnN5XRqpwDW-Cq90tK5-200">
          <mxGeometry width="50" height="50" relative="1" as="geometry">
            <mxPoint x="509" y="391" as="sourcePoint" />
            <mxPoint x="139" y="62" as="targetPoint" />
          </mxGeometry>
        </mxCell>
        <mxCell id="-qnN5XRqpwDW-Cq90tK5-67" value="1" style="edgeLabel;html=1;align=center;verticalAlign=middle;resizable=0;points=[];" vertex="1" connectable="0" parent="-qnN5XRqpwDW-Cq90tK5-66">
          <mxGeometry x="-0.5275" y="2" relative="1" as="geometry">
            <mxPoint x="1" as="offset" />
          </mxGeometry>
        </mxCell>
        <mxCell id="-qnN5XRqpwDW-Cq90tK5-68" value="n" style="edgeLabel;html=1;align=center;verticalAlign=middle;resizable=0;points=[];" vertex="1" connectable="0" parent="-qnN5XRqpwDW-Cq90tK5-66">
          <mxGeometry x="0.6414" y="-2" relative="1" as="geometry">
            <mxPoint as="offset" />
          </mxGeometry>
        </mxCell>
        <mxCell id="-qnN5XRqpwDW-Cq90tK5-69" value="custemer&lt;br&gt;" style="edgeLabel;html=1;align=center;verticalAlign=middle;resizable=0;points=[];" vertex="1" connectable="0" parent="-qnN5XRqpwDW-Cq90tK5-66">
          <mxGeometry x="0.3918" y="1" relative="1" as="geometry">
            <mxPoint x="-0.6799999999999997" y="-13.8" as="offset" />
          </mxGeometry>
        </mxCell>
        <mxCell id="-qnN5XRqpwDW-Cq90tK5-70" value="" style="endArrow=classic;startArrow=classic;html=1;exitX=0.25;exitY=1;exitDx=0;exitDy=0;entryX=1;entryY=0.5;entryDx=0;entryDy=0;" edge="1" parent="1" source="-qnN5XRqpwDW-Cq90tK5-200" target="-qnN5XRqpwDW-Cq90tK5-192">
          <mxGeometry width="50" height="50" relative="1" as="geometry">
            <mxPoint x="439" y="554" as="sourcePoint" />
            <mxPoint x="430" y="330" as="targetPoint" />
          </mxGeometry>
        </mxCell>
        <mxCell id="-qnN5XRqpwDW-Cq90tK5-71" value="1" style="edgeLabel;html=1;align=center;verticalAlign=middle;resizable=0;points=[];" vertex="1" connectable="0" parent="-qnN5XRqpwDW-Cq90tK5-70">
          <mxGeometry x="-0.6043" relative="1" as="geometry">
            <mxPoint as="offset" />
          </mxGeometry>
        </mxCell>
        <mxCell id="-qnN5XRqpwDW-Cq90tK5-72" value="n" style="edgeLabel;html=1;align=center;verticalAlign=middle;resizable=0;points=[];" vertex="1" connectable="0" parent="-qnN5XRqpwDW-Cq90tK5-70">
          <mxGeometry x="0.6008" y="3" relative="1" as="geometry">
            <mxPoint as="offset" />
          </mxGeometry>
        </mxCell>
        <mxCell id="-qnN5XRqpwDW-Cq90tK5-73" value="articles&lt;br&gt;" style="edgeLabel;html=1;align=center;verticalAlign=middle;resizable=0;points=[];" vertex="1" connectable="0" parent="-qnN5XRqpwDW-Cq90tK5-70">
          <mxGeometry x="-0.2369" y="-3" relative="1" as="geometry">
            <mxPoint as="offset" />
          </mxGeometry>
        </mxCell>
        <mxCell id="-qnN5XRqpwDW-Cq90tK5-74" value="" style="endArrow=classic;startArrow=classic;html=1;entryX=0.75;entryY=0;entryDx=0;entryDy=0;exitX=0.25;exitY=1;exitDx=0;exitDy=0;" edge="1" parent="1" source="-qnN5XRqpwDW-Cq90tK5-242" target="-qnN5XRqpwDW-Cq90tK5-237">
          <mxGeometry width="50" height="50" relative="1" as="geometry">
            <mxPoint x="422" y="781" as="sourcePoint" />
            <mxPoint x="339.3599999999999" y="476.98600000000033" as="targetPoint" />
          </mxGeometry>
        </mxCell>
        <mxCell id="-qnN5XRqpwDW-Cq90tK5-75" value="n" style="edgeLabel;html=1;align=center;verticalAlign=middle;resizable=0;points=[];" vertex="1" connectable="0" parent="-qnN5XRqpwDW-Cq90tK5-74">
          <mxGeometry x="-0.8607" y="4" relative="1" as="geometry">
            <mxPoint as="offset" />
          </mxGeometry>
        </mxCell>
        <mxCell id="-qnN5XRqpwDW-Cq90tK5-76" value="1" style="edgeLabel;html=1;align=center;verticalAlign=middle;resizable=0;points=[];" vertex="1" connectable="0" parent="-qnN5XRqpwDW-Cq90tK5-74">
          <mxGeometry x="0.8552" y="-2" relative="1" as="geometry">
            <mxPoint as="offset" />
          </mxGeometry>
        </mxCell>
        <mxCell id="-qnN5XRqpwDW-Cq90tK5-77" value="teamMember" style="edgeLabel;html=1;align=center;verticalAlign=middle;resizable=0;points=[];" vertex="1" connectable="0" parent="-qnN5XRqpwDW-Cq90tK5-74">
          <mxGeometry x="0.2576" y="3" relative="1" as="geometry">
            <mxPoint as="offset" />
          </mxGeometry>
        </mxCell>
        <mxCell id="-qnN5XRqpwDW-Cq90tK5-78" value="" style="endArrow=classic;startArrow=classic;html=1;entryX=1;entryY=0.5;entryDx=0;entryDy=0;exitX=0.5;exitY=0;exitDx=0;exitDy=0;" edge="1" parent="1" source="-qnN5XRqpwDW-Cq90tK5-237" target="-qnN5XRqpwDW-Cq90tK5-145">
          <mxGeometry width="50" height="50" relative="1" as="geometry">
            <mxPoint x="679" y="801" as="sourcePoint" />
            <mxPoint x="129" y="105.99999999999977" as="targetPoint" />
          </mxGeometry>
        </mxCell>
        <mxCell id="-qnN5XRqpwDW-Cq90tK5-79" value="1" style="edgeLabel;html=1;align=center;verticalAlign=middle;resizable=0;points=[];" vertex="1" connectable="0" parent="-qnN5XRqpwDW-Cq90tK5-78">
          <mxGeometry x="-0.8913" relative="1" as="geometry">
            <mxPoint as="offset" />
          </mxGeometry>
        </mxCell>
        <mxCell id="-qnN5XRqpwDW-Cq90tK5-80" value="n" style="edgeLabel;html=1;align=center;verticalAlign=middle;resizable=0;points=[];" vertex="1" connectable="0" parent="-qnN5XRqpwDW-Cq90tK5-78">
          <mxGeometry x="0.7975" y="-4" relative="1" as="geometry">
            <mxPoint y="1" as="offset" />
          </mxGeometry>
        </mxCell>
        <mxCell id="-qnN5XRqpwDW-Cq90tK5-81" value="contacts" style="edgeLabel;html=1;align=center;verticalAlign=middle;resizable=0;points=[];" vertex="1" connectable="0" parent="-qnN5XRqpwDW-Cq90tK5-78">
          <mxGeometry x="-0.4112" y="-8" relative="1" as="geometry">
            <mxPoint x="-1" as="offset" />
          </mxGeometry>
        </mxCell>
        <mxCell id="-qnN5XRqpwDW-Cq90tK5-82" value="" style="endArrow=classic;startArrow=classic;html=1;exitX=0.5;exitY=0;exitDx=0;exitDy=0;entryX=0.5;entryY=1;entryDx=0;entryDy=0;" edge="1" parent="1" source="-qnN5XRqpwDW-Cq90tK5-224" target="-qnN5XRqpwDW-Cq90tK5-191">
          <mxGeometry width="50" height="50" relative="1" as="geometry">
            <mxPoint x="422" y="440" as="sourcePoint" />
            <mxPoint x="340" y="750" as="targetPoint" />
          </mxGeometry>
        </mxCell>
        <mxCell id="-qnN5XRqpwDW-Cq90tK5-83" value="1" style="edgeLabel;html=1;align=center;verticalAlign=middle;resizable=0;points=[];" vertex="1" connectable="0" parent="-qnN5XRqpwDW-Cq90tK5-82">
          <mxGeometry x="0.5691" y="-3" relative="1" as="geometry">
            <mxPoint as="offset" />
          </mxGeometry>
        </mxCell>
        <mxCell id="-qnN5XRqpwDW-Cq90tK5-84" value="n" style="edgeLabel;html=1;align=center;verticalAlign=middle;resizable=0;points=[];" vertex="1" connectable="0" parent="-qnN5XRqpwDW-Cq90tK5-82">
          <mxGeometry x="-0.6337" y="1" relative="1" as="geometry">
            <mxPoint as="offset" />
          </mxGeometry>
        </mxCell>
        <mxCell id="-qnN5XRqpwDW-Cq90tK5-85" value="products" style="edgeLabel;html=1;align=center;verticalAlign=middle;resizable=0;points=[];" vertex="1" connectable="0" parent="-qnN5XRqpwDW-Cq90tK5-82">
          <mxGeometry x="0.3899" y="1" relative="1" as="geometry">
            <mxPoint x="19.410000000000004" y="5.440000000000001" as="offset" />
          </mxGeometry>
        </mxCell>
        <mxCell id="-qnN5XRqpwDW-Cq90tK5-86" value="" style="endArrow=classic;startArrow=classic;html=1;entryX=0.25;entryY=0;entryDx=0;entryDy=0;exitX=0.75;exitY=1;exitDx=0;exitDy=0;" edge="1" parent="1" source="-qnN5XRqpwDW-Cq90tK5-200" target="-qnN5XRqpwDW-Cq90tK5-237">
          <mxGeometry width="50" height="50" relative="1" as="geometry">
            <mxPoint x="530" y="610" as="sourcePoint" />
            <mxPoint x="499" y="851" as="targetPoint" />
          </mxGeometry>
        </mxCell>
        <mxCell id="-qnN5XRqpwDW-Cq90tK5-87" value="1" style="edgeLabel;html=1;align=center;verticalAlign=middle;resizable=0;points=[];" vertex="1" connectable="0" parent="-qnN5XRqpwDW-Cq90tK5-86">
          <mxGeometry x="0.8262" y="3" relative="1" as="geometry">
            <mxPoint y="1" as="offset" />
          </mxGeometry>
        </mxCell>
        <mxCell id="-qnN5XRqpwDW-Cq90tK5-88" value="n" style="edgeLabel;html=1;align=center;verticalAlign=middle;resizable=0;points=[];" vertex="1" connectable="0" parent="-qnN5XRqpwDW-Cq90tK5-86">
          <mxGeometry x="-0.6419" y="-2" relative="1" as="geometry">
            <mxPoint as="offset" />
          </mxGeometry>
        </mxCell>
        <mxCell id="-qnN5XRqpwDW-Cq90tK5-89" value="contracts" style="edgeLabel;html=1;align=center;verticalAlign=middle;resizable=0;points=[];" vertex="1" connectable="0" parent="-qnN5XRqpwDW-Cq90tK5-86">
          <mxGeometry x="0.1259" relative="1" as="geometry">
            <mxPoint as="offset" />
          </mxGeometry>
        </mxCell>
        <mxCell id="-qnN5XRqpwDW-Cq90tK5-90" value="" style="endArrow=classic;startArrow=classic;html=1;exitX=0.5;exitY=0;exitDx=0;exitDy=0;entryX=0.5;entryY=1;entryDx=0;entryDy=0;" edge="1" parent="1" source="-qnN5XRqpwDW-Cq90tK5-191" target="-qnN5XRqpwDW-Cq90tK5-172">
          <mxGeometry width="50" height="50" relative="1" as="geometry">
            <mxPoint x="449" y="901" as="sourcePoint" />
            <mxPoint x="276.4301675977654" y="754.9999999999998" as="targetPoint" />
          </mxGeometry>
        </mxCell>
        <mxCell id="-qnN5XRqpwDW-Cq90tK5-91" value="n" style="edgeLabel;html=1;align=center;verticalAlign=middle;resizable=0;points=[];" vertex="1" connectable="0" parent="-qnN5XRqpwDW-Cq90tK5-90">
          <mxGeometry x="0.7214" y="1" relative="1" as="geometry">
            <mxPoint y="1" as="offset" />
          </mxGeometry>
        </mxCell>
        <mxCell id="-qnN5XRqpwDW-Cq90tK5-92" value="1" style="edgeLabel;html=1;align=center;verticalAlign=middle;resizable=0;points=[];" vertex="1" connectable="0" parent="-qnN5XRqpwDW-Cq90tK5-90">
          <mxGeometry x="-0.6114" y="-1" relative="1" as="geometry">
            <mxPoint as="offset" />
          </mxGeometry>
        </mxCell>
        <mxCell id="-qnN5XRqpwDW-Cq90tK5-93" value="articles" style="edgeLabel;html=1;align=center;verticalAlign=middle;resizable=0;points=[];" vertex="1" connectable="0" parent="-qnN5XRqpwDW-Cq90tK5-90">
          <mxGeometry x="-0.1039" relative="1" as="geometry">
            <mxPoint x="1" as="offset" />
          </mxGeometry>
        </mxCell>
        <mxCell id="-qnN5XRqpwDW-Cq90tK5-94" value="" style="endArrow=classic;startArrow=classic;html=1;entryX=0.5;entryY=1;entryDx=0;entryDy=0;exitX=1;exitY=0.5;exitDx=0;exitDy=0;" edge="1" parent="1" source="-qnN5XRqpwDW-Cq90tK5-224" target="-qnN5XRqpwDW-Cq90tK5-242">
          <mxGeometry width="50" height="50" relative="1" as="geometry">
            <mxPoint x="449" y="71" as="sourcePoint" />
            <mxPoint x="499" y="21" as="targetPoint" />
            <Array as="points">
              <mxPoint x="600" y="915" />
            </Array>
          </mxGeometry>
        </mxCell>
        <mxCell id="-qnN5XRqpwDW-Cq90tK5-95" value="n" style="edgeLabel;html=1;align=center;verticalAlign=middle;resizable=0;points=[];" vertex="1" connectable="0" parent="-qnN5XRqpwDW-Cq90tK5-94">
          <mxGeometry x="-0.9432" y="1" relative="1" as="geometry">
            <mxPoint as="offset" />
          </mxGeometry>
        </mxCell>
        <mxCell id="-qnN5XRqpwDW-Cq90tK5-96" value="1" style="edgeLabel;html=1;align=center;verticalAlign=middle;resizable=0;points=[];" vertex="1" connectable="0" parent="-qnN5XRqpwDW-Cq90tK5-94">
          <mxGeometry x="0.9379" y="2" relative="1" as="geometry">
            <mxPoint as="offset" />
          </mxGeometry>
        </mxCell>
        <mxCell id="-qnN5XRqpwDW-Cq90tK5-97" value="orderdBy&lt;br&gt;" style="edgeLabel;html=1;align=center;verticalAlign=middle;resizable=0;points=[];" vertex="1" connectable="0" parent="-qnN5XRqpwDW-Cq90tK5-94">
          <mxGeometry x="-0.2813" y="129" relative="1" as="geometry">
            <mxPoint x="138.84" y="-62.58" as="offset" />
          </mxGeometry>
        </mxCell>
        <mxCell id="-qnN5XRqpwDW-Cq90tK5-98" value="" style="endArrow=classic;startArrow=classic;html=1;exitX=1;exitY=0.5;exitDx=0;exitDy=0;entryX=0;entryY=0.25;entryDx=0;entryDy=0;" edge="1" parent="1" source="-qnN5XRqpwDW-Cq90tK5-191" target="-qnN5XRqpwDW-Cq90tK5-237">
          <mxGeometry width="50" height="50" relative="1" as="geometry">
            <mxPoint x="609" y="1001" as="sourcePoint" />
            <mxPoint x="679" y="871" as="targetPoint" />
          </mxGeometry>
        </mxCell>
        <mxCell id="-qnN5XRqpwDW-Cq90tK5-99" value="1" style="edgeLabel;html=1;align=center;verticalAlign=middle;resizable=0;points=[];" vertex="1" connectable="0" parent="-qnN5XRqpwDW-Cq90tK5-98">
          <mxGeometry x="0.6923" y="2" relative="1" as="geometry">
            <mxPoint as="offset" />
          </mxGeometry>
        </mxCell>
        <mxCell id="-qnN5XRqpwDW-Cq90tK5-100" value="n" style="edgeLabel;html=1;align=center;verticalAlign=middle;resizable=0;points=[];" vertex="1" connectable="0" parent="-qnN5XRqpwDW-Cq90tK5-98">
          <mxGeometry x="-0.399" relative="1" as="geometry">
            <mxPoint as="offset" />
          </mxGeometry>
        </mxCell>
        <mxCell id="-qnN5XRqpwDW-Cq90tK5-101" value="products&lt;br&gt;" style="edgeLabel;html=1;align=center;verticalAlign=middle;resizable=0;points=[];" vertex="1" connectable="0" parent="-qnN5XRqpwDW-Cq90tK5-98">
          <mxGeometry x="0.2963" y="-2" relative="1" as="geometry">
            <mxPoint x="-6.52" y="-11.18" as="offset" />
          </mxGeometry>
        </mxCell>
        <mxCell id="-qnN5XRqpwDW-Cq90tK5-102" value="" style="endArrow=classic;startArrow=classic;html=1;entryX=0;entryY=0.5;entryDx=0;entryDy=0;exitX=1;exitY=0.5;exitDx=0;exitDy=0;" edge="1" parent="1" source="-qnN5XRqpwDW-Cq90tK5-222" target="-qnN5XRqpwDW-Cq90tK5-225">
          <mxGeometry width="50" height="50" relative="1" as="geometry">
            <mxPoint x="120" y="699" as="sourcePoint" />
            <mxPoint x="239" y="1101" as="targetPoint" />
          </mxGeometry>
        </mxCell>
        <mxCell id="-qnN5XRqpwDW-Cq90tK5-103" value="n" style="edgeLabel;html=1;align=center;verticalAlign=middle;resizable=0;points=[];" vertex="1" connectable="0" parent="-qnN5XRqpwDW-Cq90tK5-102">
          <mxGeometry x="0.6077" y="-3" relative="1" as="geometry">
            <mxPoint x="1" y="1" as="offset" />
          </mxGeometry>
        </mxCell>
        <mxCell id="-qnN5XRqpwDW-Cq90tK5-104" value="1" style="edgeLabel;html=1;align=center;verticalAlign=middle;resizable=0;points=[];" vertex="1" connectable="0" parent="-qnN5XRqpwDW-Cq90tK5-102">
          <mxGeometry x="-0.5243" y="1" relative="1" as="geometry">
            <mxPoint as="offset" />
          </mxGeometry>
        </mxCell>
        <mxCell id="-qnN5XRqpwDW-Cq90tK5-105" value="orders" style="edgeLabel;html=1;align=center;verticalAlign=middle;resizable=0;points=[];" vertex="1" connectable="0" parent="-qnN5XRqpwDW-Cq90tK5-102">
          <mxGeometry x="0.2223" y="5" relative="1" as="geometry">
            <mxPoint as="offset" />
          </mxGeometry>
        </mxCell>
        <mxCell id="-qnN5XRqpwDW-Cq90tK5-106" value="" style="endArrow=classic;startArrow=classic;html=1;entryX=0.75;entryY=1;entryDx=0;entryDy=0;exitX=0.25;exitY=1;exitDx=0;exitDy=0;" edge="1" parent="1" source="-qnN5XRqpwDW-Cq90tK5-217" target="-qnN5XRqpwDW-Cq90tK5-242">
          <mxGeometry width="50" height="50" relative="1" as="geometry">
            <mxPoint x="140" y="690" as="sourcePoint" />
            <mxPoint x="779" y="213.678" as="targetPoint" />
            <Array as="points">
              <mxPoint x="119" y="1000" />
              <mxPoint x="640" y="1000" />
            </Array>
          </mxGeometry>
        </mxCell>
        <mxCell id="-qnN5XRqpwDW-Cq90tK5-107" value="n" style="edgeLabel;html=1;align=center;verticalAlign=middle;resizable=0;points=[];" vertex="1" connectable="0" parent="-qnN5XRqpwDW-Cq90tK5-106">
          <mxGeometry x="-0.9432" y="1" relative="1" as="geometry">
            <mxPoint as="offset" />
          </mxGeometry>
        </mxCell>
        <mxCell id="-qnN5XRqpwDW-Cq90tK5-108" value="1" style="edgeLabel;html=1;align=center;verticalAlign=middle;resizable=0;points=[];" vertex="1" connectable="0" parent="-qnN5XRqpwDW-Cq90tK5-106">
          <mxGeometry x="0.9379" y="2" relative="1" as="geometry">
            <mxPoint as="offset" />
          </mxGeometry>
        </mxCell>
        <mxCell id="-qnN5XRqpwDW-Cq90tK5-109" value="teamMeember" style="edgeLabel;html=1;align=center;verticalAlign=middle;resizable=0;points=[];" vertex="1" connectable="0" parent="-qnN5XRqpwDW-Cq90tK5-106">
          <mxGeometry x="0.3114" y="-4" relative="1" as="geometry">
            <mxPoint y="-35.08" as="offset" />
          </mxGeometry>
        </mxCell>
        <mxCell id="-qnN5XRqpwDW-Cq90tK5-114" value="" style="endArrow=classic;startArrow=classic;html=1;exitX=0;exitY=0.5;exitDx=0;exitDy=0;entryX=1;entryY=0.5;entryDx=0;entryDy=0;" edge="1" parent="1" source="-qnN5XRqpwDW-Cq90tK5-145" target="-qnN5XRqpwDW-Cq90tK5-158">
          <mxGeometry width="50" height="50" relative="1" as="geometry">
            <mxPoint x="399" y="121" as="sourcePoint" />
            <mxPoint x="169" y="146" as="targetPoint" />
          </mxGeometry>
        </mxCell>
        <mxCell id="-qnN5XRqpwDW-Cq90tK5-115" value="n" style="edgeLabel;html=1;align=center;verticalAlign=middle;resizable=0;points=[];" vertex="1" connectable="0" parent="-qnN5XRqpwDW-Cq90tK5-114">
          <mxGeometry x="0.6943" relative="1" as="geometry">
            <mxPoint as="offset" />
          </mxGeometry>
        </mxCell>
        <mxCell id="-qnN5XRqpwDW-Cq90tK5-116" value="m" style="edgeLabel;html=1;align=center;verticalAlign=middle;resizable=0;points=[];" vertex="1" connectable="0" parent="-qnN5XRqpwDW-Cq90tK5-114">
          <mxGeometry x="-0.5105" y="-2" relative="1" as="geometry">
            <mxPoint as="offset" />
          </mxGeometry>
        </mxCell>
        <mxCell id="-qnN5XRqpwDW-Cq90tK5-117" value="teamMember" style="edgeLabel;html=1;align=center;verticalAlign=middle;resizable=0;points=[];" vertex="1" connectable="0" parent="-qnN5XRqpwDW-Cq90tK5-114">
          <mxGeometry x="-0.1009" y="-5" relative="1" as="geometry">
            <mxPoint x="1" as="offset" />
          </mxGeometry>
        </mxCell>
        <mxCell id="-qnN5XRqpwDW-Cq90tK5-118" value="" style="endArrow=classic;startArrow=classic;html=1;entryX=0.75;entryY=0;entryDx=0;entryDy=0;exitX=0.75;exitY=1;exitDx=0;exitDy=0;" edge="1" parent="1" source="-qnN5XRqpwDW-Cq90tK5-138" target="-qnN5XRqpwDW-Cq90tK5-200">
          <mxGeometry width="50" height="50" relative="1" as="geometry">
            <mxPoint x="500" y="300" as="sourcePoint" />
            <mxPoint x="547" y="451" as="targetPoint" />
          </mxGeometry>
        </mxCell>
        <mxCell id="-qnN5XRqpwDW-Cq90tK5-119" value="1" style="edgeLabel;html=1;align=center;verticalAlign=middle;resizable=0;points=[];" vertex="1" connectable="0" parent="-qnN5XRqpwDW-Cq90tK5-118">
          <mxGeometry x="-0.5275" y="2" relative="1" as="geometry">
            <mxPoint x="1" as="offset" />
          </mxGeometry>
        </mxCell>
        <mxCell id="-qnN5XRqpwDW-Cq90tK5-120" value="n" style="edgeLabel;html=1;align=center;verticalAlign=middle;resizable=0;points=[];" vertex="1" connectable="0" parent="-qnN5XRqpwDW-Cq90tK5-118">
          <mxGeometry x="0.6414" y="-2" relative="1" as="geometry">
            <mxPoint as="offset" />
          </mxGeometry>
        </mxCell>
        <mxCell id="-qnN5XRqpwDW-Cq90tK5-121" value="signedBy" style="edgeLabel;html=1;align=center;verticalAlign=middle;resizable=0;points=[];" vertex="1" connectable="0" parent="-qnN5XRqpwDW-Cq90tK5-118">
          <mxGeometry x="0.3918" y="1" relative="1" as="geometry">
            <mxPoint x="-0.6799999999999997" y="-19.23" as="offset" />
          </mxGeometry>
        </mxCell>
        <mxCell id="-qnN5XRqpwDW-Cq90tK5-122" value="" style="endArrow=classic;startArrow=classic;html=1;entryX=1;entryY=0.5;entryDx=0;entryDy=0;exitX=0.5;exitY=0;exitDx=0;exitDy=0;" edge="1" parent="1" source="-qnN5XRqpwDW-Cq90tK5-242" target="-qnN5XRqpwDW-Cq90tK5-141">
          <mxGeometry width="50" height="50" relative="1" as="geometry">
            <mxPoint x="769" y="242.9999999999999" as="sourcePoint" />
            <mxPoint x="539" y="252.9999999999999" as="targetPoint" />
          </mxGeometry>
        </mxCell>
        <mxCell id="-qnN5XRqpwDW-Cq90tK5-123" value="1" style="edgeLabel;html=1;align=center;verticalAlign=middle;resizable=0;points=[];" vertex="1" connectable="0" parent="-qnN5XRqpwDW-Cq90tK5-122">
          <mxGeometry x="0.6943" relative="1" as="geometry">
            <mxPoint as="offset" />
          </mxGeometry>
        </mxCell>
        <mxCell id="-qnN5XRqpwDW-Cq90tK5-124" value="1" style="edgeLabel;html=1;align=center;verticalAlign=middle;resizable=0;points=[];" vertex="1" connectable="0" parent="-qnN5XRqpwDW-Cq90tK5-122">
          <mxGeometry x="-0.5105" y="-2" relative="1" as="geometry">
            <mxPoint x="9.16" y="9.39" as="offset" />
          </mxGeometry>
        </mxCell>
        <mxCell id="-qnN5XRqpwDW-Cq90tK5-125" value="isTeamMember" style="edgeLabel;html=1;align=center;verticalAlign=middle;resizable=0;points=[];" vertex="1" connectable="0" parent="-qnN5XRqpwDW-Cq90tK5-122">
          <mxGeometry x="-0.1009" y="-5" relative="1" as="geometry">
            <mxPoint x="1" as="offset" />
          </mxGeometry>
        </mxCell>
        <mxCell id="-qnN5XRqpwDW-Cq90tK5-126" value="" style="endArrow=classic;startArrow=classic;html=1;exitX=0;exitY=0.5;exitDx=0;exitDy=0;entryX=0.75;entryY=0;entryDx=0;entryDy=0;" edge="1" parent="1" source="-qnN5XRqpwDW-Cq90tK5-147" target="-qnN5XRqpwDW-Cq90tK5-172">
          <mxGeometry width="50" height="50" relative="1" as="geometry">
            <mxPoint x="409" y="171.9999999999999" as="sourcePoint" />
            <mxPoint x="179" y="156" as="targetPoint" />
          </mxGeometry>
        </mxCell>
        <mxCell id="-qnN5XRqpwDW-Cq90tK5-127" value="n" style="edgeLabel;html=1;align=center;verticalAlign=middle;resizable=0;points=[];" vertex="1" connectable="0" parent="-qnN5XRqpwDW-Cq90tK5-126">
          <mxGeometry x="0.6943" relative="1" as="geometry">
            <mxPoint as="offset" />
          </mxGeometry>
        </mxCell>
        <mxCell id="-qnN5XRqpwDW-Cq90tK5-128" value="1" style="edgeLabel;html=1;align=center;verticalAlign=middle;resizable=0;points=[];" vertex="1" connectable="0" parent="-qnN5XRqpwDW-Cq90tK5-126">
          <mxGeometry x="-0.5105" y="-2" relative="1" as="geometry">
            <mxPoint as="offset" />
          </mxGeometry>
        </mxCell>
        <mxCell id="-qnN5XRqpwDW-Cq90tK5-129" value="supplier" style="edgeLabel;html=1;align=center;verticalAlign=middle;resizable=0;points=[];" vertex="1" connectable="0" parent="-qnN5XRqpwDW-Cq90tK5-126">
          <mxGeometry x="-0.1009" y="-5" relative="1" as="geometry">
            <mxPoint x="-26.91" y="3.4299999999999997" as="offset" />
          </mxGeometry>
        </mxCell>
        <mxCell id="-qnN5XRqpwDW-Cq90tK5-130" value="" style="shape=partialRectangle;top=0;left=0;right=0;bottom=0;align=left;verticalAlign=top;fillColor=none;spacingLeft=34;spacingRight=4;overflow=hidden;rotatable=0;points=[[0,0.5],[1,0.5]];portConstraint=eastwest;dropTarget=0;fontSize=12;" vertex="1" parent="1">
          <mxGeometry x="1089" y="261" width="120" height="128" as="geometry" />
        </mxCell>
        <mxCell id="-qnN5XRqpwDW-Cq90tK5-137" value="" style="shape=partialRectangle;top=0;left=0;right=0;bottom=0;align=left;verticalAlign=top;fillColor=none;spacingLeft=34;spacingRight=4;overflow=hidden;rotatable=0;points=[[0,0.5],[1,0.5]];portConstraint=eastwest;dropTarget=0;fontSize=12;" vertex="1" parent="1">
          <mxGeometry x="999" y="370" width="120" height="154" as="geometry" />
        </mxCell>
        <mxCell id="-qnN5XRqpwDW-Cq90tK5-138" value="Contact" style="swimlane;fontStyle=0;childLayout=stackLayout;horizontal=1;startSize=26;fillColor=#e0e0e0;horizontalStack=0;resizeParent=1;resizeParentMax=0;resizeLast=0;collapsible=1;marginBottom=0;swimlaneFillColor=#ffffff;align=center;fontSize=14;" vertex="1" parent="1">
          <mxGeometry x="440" y="41" width="120" height="232" as="geometry">
            <mxRectangle x="399" y="41" width="80" height="26" as="alternateBounds" />
          </mxGeometry>
        </mxCell>
        <mxCell id="-qnN5XRqpwDW-Cq90tK5-139" value="wid" style="shape=partialRectangle;top=0;left=0;right=0;bottom=1;align=left;verticalAlign=middle;fillColor=none;spacingLeft=34;spacingRight=4;overflow=hidden;rotatable=0;points=[[0,0.5],[1,0.5]];portConstraint=eastwest;dropTarget=0;fontStyle=5;fontSize=12;" vertex="1" parent="-qnN5XRqpwDW-Cq90tK5-138">
          <mxGeometry y="26" width="120" height="24" as="geometry" />
        </mxCell>
        <mxCell id="-qnN5XRqpwDW-Cq90tK5-140" value="PK" style="shape=partialRectangle;top=0;left=0;bottom=0;fillColor=none;align=left;verticalAlign=middle;spacingLeft=4;spacingRight=4;overflow=hidden;rotatable=0;points=[];portConstraint=eastwest;part=1;fontSize=12;" vertex="1" connectable="0" parent="-qnN5XRqpwDW-Cq90tK5-139">
          <mxGeometry width="120" height="24" as="geometry" />
        </mxCell>
        <mxCell id="-qnN5XRqpwDW-Cq90tK5-141" value="name" style="shape=partialRectangle;top=0;left=0;right=0;bottom=0;align=left;verticalAlign=top;fillColor=none;spacingLeft=34;spacingRight=4;overflow=hidden;rotatable=0;points=[[0,0.5],[1,0.5]];portConstraint=eastwest;dropTarget=0;fontSize=12;" vertex="1" parent="-qnN5XRqpwDW-Cq90tK5-138">
          <mxGeometry y="50" width="120" height="26" as="geometry" />
        </mxCell>
        <mxCell id="-qnN5XRqpwDW-Cq90tK5-142" value="" style="shape=partialRectangle;top=0;left=0;bottom=0;fillColor=none;align=left;verticalAlign=top;spacingLeft=4;spacingRight=4;overflow=hidden;rotatable=0;points=[];portConstraint=eastwest;part=1;fontSize=12;" vertex="1" connectable="0" parent="-qnN5XRqpwDW-Cq90tK5-141">
          <mxGeometry width="120" height="26" as="geometry" />
        </mxCell>
        <mxCell id="-qnN5XRqpwDW-Cq90tK5-143" value="address" style="shape=partialRectangle;top=0;left=0;right=0;bottom=0;align=left;verticalAlign=top;fillColor=none;spacingLeft=34;spacingRight=4;overflow=hidden;rotatable=0;points=[[0,0.5],[1,0.5]];portConstraint=eastwest;dropTarget=0;fontSize=12;" vertex="1" parent="-qnN5XRqpwDW-Cq90tK5-138">
          <mxGeometry y="76" width="120" height="26" as="geometry" />
        </mxCell>
        <mxCell id="-qnN5XRqpwDW-Cq90tK5-144" value="" style="shape=partialRectangle;top=0;left=0;bottom=0;fillColor=none;align=left;verticalAlign=top;spacingLeft=4;spacingRight=4;overflow=hidden;rotatable=0;points=[];portConstraint=eastwest;part=1;fontSize=12;" vertex="1" connectable="0" parent="-qnN5XRqpwDW-Cq90tK5-143">
          <mxGeometry width="120" height="26" as="geometry" />
        </mxCell>
        <object label="phonenumber" email="" id="-qnN5XRqpwDW-Cq90tK5-145">
          <mxCell style="shape=partialRectangle;top=0;left=0;right=0;bottom=0;align=left;verticalAlign=top;fillColor=none;spacingLeft=34;spacingRight=4;overflow=hidden;rotatable=0;points=[[0,0.5],[1,0.5]];portConstraint=eastwest;dropTarget=0;fontSize=12;" vertex="1" parent="-qnN5XRqpwDW-Cq90tK5-138">
            <mxGeometry y="102" width="120" height="26" as="geometry" />
          </mxCell>
        </object>
        <mxCell id="-qnN5XRqpwDW-Cq90tK5-146" value="" style="shape=partialRectangle;top=0;left=0;bottom=0;fillColor=none;align=left;verticalAlign=top;spacingLeft=4;spacingRight=4;overflow=hidden;rotatable=0;points=[];portConstraint=eastwest;part=1;fontSize=12;" vertex="1" connectable="0" parent="-qnN5XRqpwDW-Cq90tK5-145">
          <mxGeometry width="120" height="26" as="geometry" />
        </mxCell>
        <mxCell id="-qnN5XRqpwDW-Cq90tK5-147" value="mobilephone" style="shape=partialRectangle;top=0;left=0;right=0;bottom=0;align=left;verticalAlign=top;fillColor=none;spacingLeft=34;spacingRight=4;overflow=hidden;rotatable=0;points=[[0,0.5],[1,0.5]];portConstraint=eastwest;dropTarget=0;fontSize=12;" vertex="1" parent="-qnN5XRqpwDW-Cq90tK5-138">
          <mxGeometry y="128" width="120" height="26" as="geometry" />
        </mxCell>
        <mxCell id="-qnN5XRqpwDW-Cq90tK5-148" value="" style="shape=partialRectangle;top=0;left=0;bottom=0;fillColor=none;align=left;verticalAlign=top;spacingLeft=4;spacingRight=4;overflow=hidden;rotatable=0;points=[];portConstraint=eastwest;part=1;fontSize=12;" vertex="1" connectable="0" parent="-qnN5XRqpwDW-Cq90tK5-147">
          <mxGeometry width="120" height="26" as="geometry" />
        </mxCell>
        <mxCell id="-qnN5XRqpwDW-Cq90tK5-149" value="email" style="shape=partialRectangle;top=0;left=0;right=0;bottom=0;align=left;verticalAlign=top;fillColor=none;spacingLeft=34;spacingRight=4;overflow=hidden;rotatable=0;points=[[0,0.5],[1,0.5]];portConstraint=eastwest;dropTarget=0;fontSize=12;" vertex="1" parent="-qnN5XRqpwDW-Cq90tK5-138">
          <mxGeometry y="154" width="120" height="26" as="geometry" />
        </mxCell>
        <mxCell id="-qnN5XRqpwDW-Cq90tK5-150" value="" style="shape=partialRectangle;top=0;left=0;bottom=0;fillColor=none;align=left;verticalAlign=top;spacingLeft=4;spacingRight=4;overflow=hidden;rotatable=0;points=[];portConstraint=eastwest;part=1;fontSize=12;" vertex="1" connectable="0" parent="-qnN5XRqpwDW-Cq90tK5-149">
          <mxGeometry width="120" height="26" as="geometry" />
        </mxCell>
        <mxCell id="-qnN5XRqpwDW-Cq90tK5-151" value="aware" style="shape=partialRectangle;top=0;left=0;right=0;bottom=0;align=left;verticalAlign=top;fillColor=none;spacingLeft=34;spacingRight=4;overflow=hidden;rotatable=0;points=[[0,0.5],[1,0.5]];portConstraint=eastwest;dropTarget=0;fontSize=12;" vertex="1" parent="-qnN5XRqpwDW-Cq90tK5-138">
          <mxGeometry y="180" width="120" height="26" as="geometry" />
        </mxCell>
        <mxCell id="-qnN5XRqpwDW-Cq90tK5-152" value="" style="shape=partialRectangle;top=0;left=0;bottom=0;fillColor=none;align=left;verticalAlign=top;spacingLeft=4;spacingRight=4;overflow=hidden;rotatable=0;points=[];portConstraint=eastwest;part=1;fontSize=12;" vertex="1" connectable="0" parent="-qnN5XRqpwDW-Cq90tK5-151">
          <mxGeometry width="120" height="26" as="geometry" />
        </mxCell>
        <mxCell id="-qnN5XRqpwDW-Cq90tK5-153" value="type" style="shape=partialRectangle;top=0;left=0;right=0;bottom=0;align=left;verticalAlign=top;fillColor=none;spacingLeft=34;spacingRight=4;overflow=hidden;rotatable=0;points=[[0,0.5],[1,0.5]];portConstraint=eastwest;dropTarget=0;fontSize=12;" vertex="1" parent="-qnN5XRqpwDW-Cq90tK5-138">
          <mxGeometry y="206" width="120" height="26" as="geometry" />
        </mxCell>
        <mxCell id="-qnN5XRqpwDW-Cq90tK5-154" value="" style="shape=partialRectangle;top=0;left=0;bottom=0;fillColor=none;align=left;verticalAlign=top;spacingLeft=4;spacingRight=4;overflow=hidden;rotatable=0;points=[];portConstraint=eastwest;part=1;fontSize=12;" vertex="1" connectable="0" parent="-qnN5XRqpwDW-Cq90tK5-153">
          <mxGeometry width="120" height="26" as="geometry" />
        </mxCell>
        <mxCell id="-qnN5XRqpwDW-Cq90tK5-155" value="Meeting" style="swimlane;fontStyle=0;childLayout=stackLayout;horizontal=1;startSize=26;fillColor=#e0e0e0;horizontalStack=0;resizeParent=1;resizeParentMax=0;resizeLast=0;collapsible=1;marginBottom=0;swimlaneFillColor=#ffffff;align=center;fontSize=14;" vertex="1" parent="1">
          <mxGeometry x="119" y="120" width="120" height="196" as="geometry" />
        </mxCell>
        <mxCell id="-qnN5XRqpwDW-Cq90tK5-156" value="meetingID" style="shape=partialRectangle;top=0;left=0;right=0;bottom=1;align=left;verticalAlign=middle;fillColor=none;spacingLeft=34;spacingRight=4;overflow=hidden;rotatable=0;points=[[0,0.5],[1,0.5]];portConstraint=eastwest;dropTarget=0;fontStyle=5;fontSize=12;" vertex="1" parent="-qnN5XRqpwDW-Cq90tK5-155">
          <mxGeometry y="26" width="120" height="30" as="geometry" />
        </mxCell>
        <mxCell id="-qnN5XRqpwDW-Cq90tK5-157" value="PK" style="shape=partialRectangle;top=0;left=0;bottom=0;fillColor=none;align=left;verticalAlign=middle;spacingLeft=4;spacingRight=4;overflow=hidden;rotatable=0;points=[];portConstraint=eastwest;part=1;fontSize=12;" vertex="1" connectable="0" parent="-qnN5XRqpwDW-Cq90tK5-156">
          <mxGeometry width="120" height="30" as="geometry" />
        </mxCell>
        <mxCell id="-qnN5XRqpwDW-Cq90tK5-158" value="title" style="shape=partialRectangle;top=0;left=0;right=0;bottom=0;align=left;verticalAlign=top;fillColor=none;spacingLeft=34;spacingRight=4;overflow=hidden;rotatable=0;points=[[0,0.5],[1,0.5]];portConstraint=eastwest;dropTarget=0;fontSize=12;" vertex="1" parent="-qnN5XRqpwDW-Cq90tK5-155">
          <mxGeometry y="56" width="120" height="26" as="geometry" />
        </mxCell>
        <mxCell id="-qnN5XRqpwDW-Cq90tK5-159" value="" style="shape=partialRectangle;top=0;left=0;bottom=0;fillColor=none;align=left;verticalAlign=top;spacingLeft=4;spacingRight=4;overflow=hidden;rotatable=0;points=[];portConstraint=eastwest;part=1;fontSize=12;" vertex="1" connectable="0" parent="-qnN5XRqpwDW-Cq90tK5-158">
          <mxGeometry width="120" height="26" as="geometry" />
        </mxCell>
        <mxCell id="-qnN5XRqpwDW-Cq90tK5-160" value="description" style="shape=partialRectangle;top=0;left=0;right=0;bottom=0;align=left;verticalAlign=top;fillColor=none;spacingLeft=34;spacingRight=4;overflow=hidden;rotatable=0;points=[[0,0.5],[1,0.5]];portConstraint=eastwest;dropTarget=0;fontSize=12;" vertex="1" parent="-qnN5XRqpwDW-Cq90tK5-155">
          <mxGeometry y="82" width="120" height="26" as="geometry" />
        </mxCell>
        <mxCell id="-qnN5XRqpwDW-Cq90tK5-161" value="" style="shape=partialRectangle;top=0;left=0;bottom=0;fillColor=none;align=left;verticalAlign=top;spacingLeft=4;spacingRight=4;overflow=hidden;rotatable=0;points=[];portConstraint=eastwest;part=1;fontSize=12;" vertex="1" connectable="0" parent="-qnN5XRqpwDW-Cq90tK5-160">
          <mxGeometry width="120" height="26" as="geometry" />
        </mxCell>
        <object label="dateTime" email="" id="-qnN5XRqpwDW-Cq90tK5-162">
          <mxCell style="shape=partialRectangle;top=0;left=0;right=0;bottom=0;align=left;verticalAlign=top;fillColor=none;spacingLeft=34;spacingRight=4;overflow=hidden;rotatable=0;points=[[0,0.5],[1,0.5]];portConstraint=eastwest;dropTarget=0;fontSize=12;" vertex="1" parent="-qnN5XRqpwDW-Cq90tK5-155">
            <mxGeometry y="108" width="120" height="32" as="geometry" />
          </mxCell>
        </object>
        <mxCell id="-qnN5XRqpwDW-Cq90tK5-163" value="" style="shape=partialRectangle;top=0;left=0;bottom=0;fillColor=none;align=left;verticalAlign=top;spacingLeft=4;spacingRight=4;overflow=hidden;rotatable=0;points=[];portConstraint=eastwest;part=1;fontSize=12;" vertex="1" connectable="0" parent="-qnN5XRqpwDW-Cq90tK5-162">
          <mxGeometry width="120" height="15.483870967741938" as="geometry" />
        </mxCell>
        <mxCell id="-qnN5XRqpwDW-Cq90tK5-164" value="state" style="shape=partialRectangle;top=0;left=0;right=0;bottom=0;align=left;verticalAlign=top;fillColor=none;spacingLeft=34;spacingRight=4;overflow=hidden;rotatable=0;points=[[0,0.5],[1,0.5]];portConstraint=eastwest;dropTarget=0;fontSize=12;" vertex="1" parent="-qnN5XRqpwDW-Cq90tK5-155">
          <mxGeometry y="140" width="120" height="30" as="geometry" />
        </mxCell>
        <mxCell id="-qnN5XRqpwDW-Cq90tK5-165" value="" style="shape=partialRectangle;top=0;left=0;bottom=0;fillColor=none;align=left;verticalAlign=top;spacingLeft=4;spacingRight=4;overflow=hidden;rotatable=0;points=[];portConstraint=eastwest;part=1;fontSize=12;" vertex="1" connectable="0" parent="-qnN5XRqpwDW-Cq90tK5-164">
          <mxGeometry width="120" height="30" as="geometry" />
        </mxCell>
        <mxCell id="-qnN5XRqpwDW-Cq90tK5-166" value="notes" style="shape=partialRectangle;top=0;left=0;right=0;bottom=0;align=left;verticalAlign=top;fillColor=none;spacingLeft=34;spacingRight=4;overflow=hidden;rotatable=0;points=[[0,0.5],[1,0.5]];portConstraint=eastwest;dropTarget=0;fontSize=12;" vertex="1" parent="-qnN5XRqpwDW-Cq90tK5-155">
          <mxGeometry y="170" width="120" height="26" as="geometry" />
        </mxCell>
        <mxCell id="-qnN5XRqpwDW-Cq90tK5-167" value="" style="shape=partialRectangle;top=0;left=0;bottom=0;fillColor=none;align=left;verticalAlign=top;spacingLeft=4;spacingRight=4;overflow=hidden;rotatable=0;points=[];portConstraint=eastwest;part=1;fontSize=12;" vertex="1" connectable="0" parent="-qnN5XRqpwDW-Cq90tK5-166">
          <mxGeometry width="120" height="26" as="geometry" />
        </mxCell>
        <mxCell id="-qnN5XRqpwDW-Cq90tK5-172" value="Artikel" style="swimlane;fontStyle=0;childLayout=stackLayout;horizontal=1;startSize=26;fillColor=#e0e0e0;horizontalStack=0;resizeParent=1;resizeParentMax=0;resizeLast=0;collapsible=1;marginBottom=0;swimlaneFillColor=#ffffff;align=center;fontSize=14;" vertex="1" parent="1">
          <mxGeometry x="279" y="277" width="120" height="264" as="geometry">
            <mxRectangle x="279" y="277" width="70" height="26" as="alternateBounds" />
          </mxGeometry>
        </mxCell>
        <mxCell id="-qnN5XRqpwDW-Cq90tK5-173" value="artikelID" style="shape=partialRectangle;top=0;left=0;right=0;bottom=1;align=left;verticalAlign=middle;fillColor=none;spacingLeft=34;spacingRight=4;overflow=hidden;rotatable=0;points=[[0,0.5],[1,0.5]];portConstraint=eastwest;dropTarget=0;fontStyle=5;fontSize=12;" vertex="1" parent="-qnN5XRqpwDW-Cq90tK5-172">
          <mxGeometry y="26" width="120" height="30" as="geometry" />
        </mxCell>
        <mxCell id="-qnN5XRqpwDW-Cq90tK5-174" value="PK" style="shape=partialRectangle;top=0;left=0;bottom=0;fillColor=none;align=left;verticalAlign=middle;spacingLeft=4;spacingRight=4;overflow=hidden;rotatable=0;points=[];portConstraint=eastwest;part=1;fontSize=12;" vertex="1" connectable="0" parent="-qnN5XRqpwDW-Cq90tK5-173">
          <mxGeometry width="120" height="30" as="geometry" />
        </mxCell>
        <mxCell id="-qnN5XRqpwDW-Cq90tK5-175" value="name" style="shape=partialRectangle;top=0;left=0;right=0;bottom=0;align=left;verticalAlign=top;fillColor=none;spacingLeft=34;spacingRight=4;overflow=hidden;rotatable=0;points=[[0,0.5],[1,0.5]];portConstraint=eastwest;dropTarget=0;fontSize=12;" vertex="1" parent="-qnN5XRqpwDW-Cq90tK5-172">
          <mxGeometry y="56" width="120" height="26" as="geometry" />
        </mxCell>
        <mxCell id="-qnN5XRqpwDW-Cq90tK5-176" value="" style="shape=partialRectangle;top=0;left=0;bottom=0;fillColor=none;align=left;verticalAlign=top;spacingLeft=4;spacingRight=4;overflow=hidden;rotatable=0;points=[];portConstraint=eastwest;part=1;fontSize=12;" vertex="1" connectable="0" parent="-qnN5XRqpwDW-Cq90tK5-175">
          <mxGeometry width="120" height="26" as="geometry" />
        </mxCell>
        <mxCell id="-qnN5XRqpwDW-Cq90tK5-177" value="description&#xa;" style="shape=partialRectangle;top=0;left=0;right=0;bottom=0;align=left;verticalAlign=top;fillColor=none;spacingLeft=34;spacingRight=4;overflow=hidden;rotatable=0;points=[[0,0.5],[1,0.5]];portConstraint=eastwest;dropTarget=0;fontSize=12;" vertex="1" parent="-qnN5XRqpwDW-Cq90tK5-172">
          <mxGeometry y="82" width="120" height="26" as="geometry" />
        </mxCell>
        <mxCell id="-qnN5XRqpwDW-Cq90tK5-178" value="" style="shape=partialRectangle;top=0;left=0;bottom=0;fillColor=none;align=left;verticalAlign=top;spacingLeft=4;spacingRight=4;overflow=hidden;rotatable=0;points=[];portConstraint=eastwest;part=1;fontSize=12;" vertex="1" connectable="0" parent="-qnN5XRqpwDW-Cq90tK5-177">
          <mxGeometry width="120" height="26" as="geometry" />
        </mxCell>
        <mxCell id="-qnN5XRqpwDW-Cq90tK5-179" value="ean" style="shape=partialRectangle;top=0;left=0;right=0;bottom=0;align=left;verticalAlign=top;fillColor=none;spacingLeft=34;spacingRight=4;overflow=hidden;rotatable=0;points=[[0,0.5],[1,0.5]];portConstraint=eastwest;dropTarget=0;fontSize=12;" vertex="1" parent="-qnN5XRqpwDW-Cq90tK5-172">
          <mxGeometry y="108" width="120" height="26" as="geometry" />
        </mxCell>
        <mxCell id="-qnN5XRqpwDW-Cq90tK5-180" value="" style="shape=partialRectangle;top=0;left=0;bottom=0;fillColor=none;align=left;verticalAlign=top;spacingLeft=4;spacingRight=4;overflow=hidden;rotatable=0;points=[];portConstraint=eastwest;part=1;fontSize=12;" vertex="1" connectable="0" parent="-qnN5XRqpwDW-Cq90tK5-179">
          <mxGeometry width="120" height="26" as="geometry" />
        </mxCell>
        <mxCell id="-qnN5XRqpwDW-Cq90tK5-181" value="type" style="shape=partialRectangle;top=0;left=0;right=0;bottom=0;align=left;verticalAlign=top;fillColor=none;spacingLeft=34;spacingRight=4;overflow=hidden;rotatable=0;points=[[0,0.5],[1,0.5]];portConstraint=eastwest;dropTarget=0;fontSize=12;" vertex="1" parent="-qnN5XRqpwDW-Cq90tK5-172">
          <mxGeometry y="134" width="120" height="26" as="geometry" />
        </mxCell>
        <mxCell id="-qnN5XRqpwDW-Cq90tK5-182" value="" style="shape=partialRectangle;top=0;left=0;bottom=0;fillColor=none;align=left;verticalAlign=top;spacingLeft=4;spacingRight=4;overflow=hidden;rotatable=0;points=[];portConstraint=eastwest;part=1;fontSize=12;" vertex="1" connectable="0" parent="-qnN5XRqpwDW-Cq90tK5-181">
          <mxGeometry width="120" height="26" as="geometry" />
        </mxCell>
        <mxCell id="-qnN5XRqpwDW-Cq90tK5-183" value="articleState" style="shape=partialRectangle;top=0;left=0;right=0;bottom=0;align=left;verticalAlign=top;fillColor=none;spacingLeft=34;spacingRight=4;overflow=hidden;rotatable=0;points=[[0,0.5],[1,0.5]];portConstraint=eastwest;dropTarget=0;fontSize=12;" vertex="1" parent="-qnN5XRqpwDW-Cq90tK5-172">
          <mxGeometry y="160" width="120" height="26" as="geometry" />
        </mxCell>
        <mxCell id="-qnN5XRqpwDW-Cq90tK5-184" value="" style="shape=partialRectangle;top=0;left=0;bottom=0;fillColor=none;align=left;verticalAlign=top;spacingLeft=4;spacingRight=4;overflow=hidden;rotatable=0;points=[];portConstraint=eastwest;part=1;fontSize=12;" vertex="1" connectable="0" parent="-qnN5XRqpwDW-Cq90tK5-183">
          <mxGeometry width="120" height="26" as="geometry" />
        </mxCell>
        <mxCell id="-qnN5XRqpwDW-Cq90tK5-185" value="ShippingDeliverdDate" style="shape=partialRectangle;top=0;left=0;right=0;bottom=0;align=left;verticalAlign=top;fillColor=none;spacingLeft=34;spacingRight=4;overflow=hidden;rotatable=0;points=[[0,0.5],[1,0.5]];portConstraint=eastwest;dropTarget=0;fontSize=12;" vertex="1" parent="-qnN5XRqpwDW-Cq90tK5-172">
          <mxGeometry y="186" width="120" height="26" as="geometry" />
        </mxCell>
        <mxCell id="-qnN5XRqpwDW-Cq90tK5-186" value="" style="shape=partialRectangle;top=0;left=0;bottom=0;fillColor=none;align=left;verticalAlign=top;spacingLeft=4;spacingRight=4;overflow=hidden;rotatable=0;points=[];portConstraint=eastwest;part=1;fontSize=12;" vertex="1" connectable="0" parent="-qnN5XRqpwDW-Cq90tK5-185">
          <mxGeometry width="120" height="26" as="geometry" />
        </mxCell>
        <mxCell id="-qnN5XRqpwDW-Cq90tK5-187" value="priceNetto" style="shape=partialRectangle;top=0;left=0;right=0;bottom=0;align=left;verticalAlign=top;fillColor=none;spacingLeft=34;spacingRight=4;overflow=hidden;rotatable=0;points=[[0,0.5],[1,0.5]];portConstraint=eastwest;dropTarget=0;fontSize=12;" vertex="1" parent="-qnN5XRqpwDW-Cq90tK5-172">
          <mxGeometry y="212" width="120" height="26" as="geometry" />
        </mxCell>
        <mxCell id="-qnN5XRqpwDW-Cq90tK5-188" value="" style="shape=partialRectangle;top=0;left=0;bottom=0;fillColor=none;align=left;verticalAlign=top;spacingLeft=4;spacingRight=4;overflow=hidden;rotatable=0;points=[];portConstraint=eastwest;part=1;fontSize=12;" vertex="1" connectable="0" parent="-qnN5XRqpwDW-Cq90tK5-187">
          <mxGeometry width="120" height="26" as="geometry" />
        </mxCell>
        <mxCell id="-qnN5XRqpwDW-Cq90tK5-189" value="priceEK" style="shape=partialRectangle;top=0;left=0;right=0;bottom=0;align=left;verticalAlign=top;fillColor=none;spacingLeft=34;spacingRight=4;overflow=hidden;rotatable=0;points=[[0,0.5],[1,0.5]];portConstraint=eastwest;dropTarget=0;fontSize=12;" vertex="1" parent="-qnN5XRqpwDW-Cq90tK5-172">
          <mxGeometry y="238" width="120" height="26" as="geometry" />
        </mxCell>
        <mxCell id="-qnN5XRqpwDW-Cq90tK5-190" value="" style="shape=partialRectangle;top=0;left=0;bottom=0;fillColor=none;align=left;verticalAlign=top;spacingLeft=4;spacingRight=4;overflow=hidden;rotatable=0;points=[];portConstraint=eastwest;part=1;fontSize=12;" vertex="1" connectable="0" parent="-qnN5XRqpwDW-Cq90tK5-189">
          <mxGeometry width="120" height="26" as="geometry" />
        </mxCell>
        <object label="Product" Muschi="Muschi&#xa;" id="-qnN5XRqpwDW-Cq90tK5-191">
          <mxCell style="swimlane;fontStyle=0;childLayout=stackLayout;horizontal=1;startSize=26;fillColor=#e0e0e0;horizontalStack=0;resizeParent=1;resizeParentMax=0;resizeLast=0;collapsible=1;marginBottom=0;swimlaneFillColor=#ffffff;align=center;fontSize=14;" vertex="1" parent="1">
            <mxGeometry x="279" y="600" width="120" height="134" as="geometry">
              <mxRectangle x="279" y="600" width="80" height="26" as="alternateBounds" />
            </mxGeometry>
          </mxCell>
        </object>
        <mxCell id="-qnN5XRqpwDW-Cq90tK5-192" value="warenID" style="shape=partialRectangle;top=0;left=0;right=0;bottom=1;align=left;verticalAlign=middle;fillColor=none;spacingLeft=34;spacingRight=4;overflow=hidden;rotatable=0;points=[[0,0.5],[1,0.5]];portConstraint=eastwest;dropTarget=0;fontStyle=5;fontSize=12;" vertex="1" parent="-qnN5XRqpwDW-Cq90tK5-191">
          <mxGeometry y="26" width="120" height="30" as="geometry" />
        </mxCell>
        <mxCell id="-qnN5XRqpwDW-Cq90tK5-193" value="PK" style="shape=partialRectangle;top=0;left=0;bottom=0;fillColor=none;align=left;verticalAlign=middle;spacingLeft=4;spacingRight=4;overflow=hidden;rotatable=0;points=[];portConstraint=eastwest;part=1;fontSize=12;" vertex="1" connectable="0" parent="-qnN5XRqpwDW-Cq90tK5-192">
          <mxGeometry width="120" height="30" as="geometry" />
        </mxCell>
        <mxCell id="-qnN5XRqpwDW-Cq90tK5-194" value="name" style="shape=partialRectangle;top=0;left=0;right=0;bottom=0;align=left;verticalAlign=top;fillColor=none;spacingLeft=34;spacingRight=4;overflow=hidden;rotatable=0;points=[[0,0.5],[1,0.5]];portConstraint=eastwest;dropTarget=0;fontSize=12;" vertex="1" parent="-qnN5XRqpwDW-Cq90tK5-191">
          <mxGeometry y="56" width="120" height="26" as="geometry" />
        </mxCell>
        <mxCell id="-qnN5XRqpwDW-Cq90tK5-195" value="" style="shape=partialRectangle;top=0;left=0;bottom=0;fillColor=none;align=left;verticalAlign=top;spacingLeft=4;spacingRight=4;overflow=hidden;rotatable=0;points=[];portConstraint=eastwest;part=1;fontSize=12;" vertex="1" connectable="0" parent="-qnN5XRqpwDW-Cq90tK5-194">
          <mxGeometry width="120" height="26" as="geometry" />
        </mxCell>
        <mxCell id="-qnN5XRqpwDW-Cq90tK5-196" value="description" style="shape=partialRectangle;top=0;left=0;right=0;bottom=0;align=left;verticalAlign=top;fillColor=none;spacingLeft=34;spacingRight=4;overflow=hidden;rotatable=0;points=[[0,0.5],[1,0.5]];portConstraint=eastwest;dropTarget=0;fontSize=12;" vertex="1" parent="-qnN5XRqpwDW-Cq90tK5-191">
          <mxGeometry y="82" width="120" height="26" as="geometry" />
        </mxCell>
        <mxCell id="-qnN5XRqpwDW-Cq90tK5-197" value="" style="shape=partialRectangle;top=0;left=0;bottom=0;fillColor=none;align=left;verticalAlign=top;spacingLeft=4;spacingRight=4;overflow=hidden;rotatable=0;points=[];portConstraint=eastwest;part=1;fontSize=12;" vertex="1" connectable="0" parent="-qnN5XRqpwDW-Cq90tK5-196">
          <mxGeometry width="120" height="26" as="geometry" />
        </mxCell>
        <object label="ean" email="" id="-qnN5XRqpwDW-Cq90tK5-198">
          <mxCell style="shape=partialRectangle;top=0;left=0;right=0;bottom=0;align=left;verticalAlign=top;fillColor=none;spacingLeft=34;spacingRight=4;overflow=hidden;rotatable=0;points=[[0,0.5],[1,0.5]];portConstraint=eastwest;dropTarget=0;fontSize=12;" vertex="1" parent="-qnN5XRqpwDW-Cq90tK5-191">
            <mxGeometry y="108" width="120" height="26" as="geometry" />
          </mxCell>
        </object>
        <mxCell id="-qnN5XRqpwDW-Cq90tK5-199" value="" style="shape=partialRectangle;top=0;left=0;bottom=0;fillColor=none;align=left;verticalAlign=top;spacingLeft=4;spacingRight=4;overflow=hidden;rotatable=0;points=[];portConstraint=eastwest;part=1;fontSize=12;" vertex="1" connectable="0" parent="-qnN5XRqpwDW-Cq90tK5-198">
          <mxGeometry width="120" height="26" as="geometry" />
        </mxCell>
        <mxCell id="-qnN5XRqpwDW-Cq90tK5-200" value="Contract" style="swimlane;fontStyle=0;childLayout=stackLayout;horizontal=1;startSize=26;fillColor=#e0e0e0;horizontalStack=0;resizeParent=1;resizeParentMax=0;resizeLast=0;collapsible=1;marginBottom=0;swimlaneFillColor=#ffffff;align=center;fontSize=14;" vertex="1" collapsed="1" parent="1">
          <mxGeometry x="440" y="360" width="90" height="26" as="geometry">
            <mxRectangle x="440" y="360" width="120" height="218" as="alternateBounds" />
          </mxGeometry>
        </mxCell>
        <object label="SigningDate" email="" id="-qnN5XRqpwDW-Cq90tK5-201">
          <mxCell style="shape=partialRectangle;top=0;left=0;right=0;bottom=0;align=left;verticalAlign=top;fillColor=none;spacingLeft=34;spacingRight=4;overflow=hidden;rotatable=0;points=[[0,0.5],[1,0.5]];portConstraint=eastwest;dropTarget=0;fontSize=12;" vertex="1" parent="-qnN5XRqpwDW-Cq90tK5-200">
            <mxGeometry y="26" width="90" height="26" as="geometry" />
          </mxCell>
        </object>
        <mxCell id="-qnN5XRqpwDW-Cq90tK5-202" value="" style="shape=partialRectangle;top=0;left=0;bottom=0;fillColor=none;align=left;verticalAlign=top;spacingLeft=4;spacingRight=4;overflow=hidden;rotatable=0;points=[];portConstraint=eastwest;part=1;fontSize=12;" vertex="1" connectable="0" parent="-qnN5XRqpwDW-Cq90tK5-201">
          <mxGeometry width="120" height="26" as="geometry" />
        </mxCell>
        <mxCell id="-qnN5XRqpwDW-Cq90tK5-203" value="WeddingDate" style="shape=partialRectangle;top=0;left=0;right=0;bottom=0;align=left;verticalAlign=top;fillColor=none;spacingLeft=34;spacingRight=4;overflow=hidden;rotatable=0;points=[[0,0.5],[1,0.5]];portConstraint=eastwest;dropTarget=0;fontSize=12;" vertex="1" parent="-qnN5XRqpwDW-Cq90tK5-200">
          <mxGeometry y="52" width="90" height="26" as="geometry" />
        </mxCell>
        <mxCell id="-qnN5XRqpwDW-Cq90tK5-204" value="" style="shape=partialRectangle;top=0;left=0;bottom=0;fillColor=none;align=left;verticalAlign=top;spacingLeft=4;spacingRight=4;overflow=hidden;rotatable=0;points=[];portConstraint=eastwest;part=1;fontSize=12;" vertex="1" connectable="0" parent="-qnN5XRqpwDW-Cq90tK5-203">
          <mxGeometry width="120" height="26" as="geometry" />
        </mxCell>
        <mxCell id="-qnN5XRqpwDW-Cq90tK5-205" value="Paid" style="shape=partialRectangle;top=0;left=0;right=0;bottom=0;align=left;verticalAlign=top;fillColor=none;spacingLeft=34;spacingRight=4;overflow=hidden;rotatable=0;points=[[0,0.5],[1,0.5]];portConstraint=eastwest;dropTarget=0;fontSize=12;" vertex="1" parent="-qnN5XRqpwDW-Cq90tK5-200">
          <mxGeometry y="78" width="90" height="26" as="geometry" />
        </mxCell>
        <mxCell id="-qnN5XRqpwDW-Cq90tK5-206" value="" style="shape=partialRectangle;top=0;left=0;bottom=0;fillColor=none;align=left;verticalAlign=top;spacingLeft=4;spacingRight=4;overflow=hidden;rotatable=0;points=[];portConstraint=eastwest;part=1;fontSize=12;" vertex="1" connectable="0" parent="-qnN5XRqpwDW-Cq90tK5-205">
          <mxGeometry width="120" height="26" as="geometry" />
        </mxCell>
        <mxCell id="-qnN5XRqpwDW-Cq90tK5-207" value="toPay" style="shape=partialRectangle;top=0;left=0;right=0;bottom=0;align=left;verticalAlign=top;fillColor=none;spacingLeft=34;spacingRight=4;overflow=hidden;rotatable=0;points=[[0,0.5],[1,0.5]];portConstraint=eastwest;dropTarget=0;fontSize=12;" vertex="1" parent="-qnN5XRqpwDW-Cq90tK5-200">
          <mxGeometry y="104" width="90" height="26" as="geometry" />
        </mxCell>
        <mxCell id="-qnN5XRqpwDW-Cq90tK5-208" value="" style="shape=partialRectangle;top=0;left=0;bottom=0;fillColor=none;align=left;verticalAlign=top;spacingLeft=4;spacingRight=4;overflow=hidden;rotatable=0;points=[];portConstraint=eastwest;part=1;fontSize=12;" vertex="1" connectable="0" parent="-qnN5XRqpwDW-Cq90tK5-207">
          <mxGeometry width="120" height="26" as="geometry" />
        </mxCell>
        <mxCell id="-qnN5XRqpwDW-Cq90tK5-209" value="contractState" style="shape=partialRectangle;top=0;left=0;right=0;bottom=0;align=left;verticalAlign=top;fillColor=none;spacingLeft=34;spacingRight=4;overflow=hidden;rotatable=0;points=[[0,0.5],[1,0.5]];portConstraint=eastwest;dropTarget=0;fontSize=12;" vertex="1" parent="-qnN5XRqpwDW-Cq90tK5-200">
          <mxGeometry y="130" width="90" height="30" as="geometry" />
        </mxCell>
        <mxCell id="-qnN5XRqpwDW-Cq90tK5-210" value="" style="shape=partialRectangle;top=0;left=0;bottom=0;fillColor=none;align=left;verticalAlign=top;spacingLeft=4;spacingRight=4;overflow=hidden;rotatable=0;points=[];portConstraint=eastwest;part=1;fontSize=12;" vertex="1" connectable="0" parent="-qnN5XRqpwDW-Cq90tK5-209">
          <mxGeometry width="120" height="30" as="geometry" />
        </mxCell>
        <mxCell id="-qnN5XRqpwDW-Cq90tK5-211" value="contractKind" style="shape=partialRectangle;top=0;left=0;right=0;bottom=0;align=left;verticalAlign=top;fillColor=none;spacingLeft=34;spacingRight=4;overflow=hidden;rotatable=0;points=[[0,0.5],[1,0.5]];portConstraint=eastwest;dropTarget=0;fontSize=12;" vertex="1" parent="-qnN5XRqpwDW-Cq90tK5-200">
          <mxGeometry y="160" width="90" height="28" as="geometry" />
        </mxCell>
        <mxCell id="-qnN5XRqpwDW-Cq90tK5-212" value="" style="shape=partialRectangle;top=0;left=0;bottom=0;fillColor=none;align=left;verticalAlign=top;spacingLeft=4;spacingRight=4;overflow=hidden;rotatable=0;points=[];portConstraint=eastwest;part=1;fontSize=12;" vertex="1" connectable="0" parent="-qnN5XRqpwDW-Cq90tK5-211">
          <mxGeometry width="120" height="28" as="geometry" />
        </mxCell>
        <mxCell id="-qnN5XRqpwDW-Cq90tK5-213" value="contractID" style="shape=partialRectangle;top=0;left=0;right=0;bottom=1;align=left;verticalAlign=middle;fillColor=none;spacingLeft=34;spacingRight=4;overflow=hidden;rotatable=0;points=[[0,0.5],[1,0.5]];portConstraint=eastwest;dropTarget=0;fontStyle=5;fontSize=12;" vertex="1" parent="-qnN5XRqpwDW-Cq90tK5-200">
          <mxGeometry y="188" width="90" height="30" as="geometry" />
        </mxCell>
        <mxCell id="-qnN5XRqpwDW-Cq90tK5-214" value="PK" style="shape=partialRectangle;top=0;left=0;bottom=0;fillColor=none;align=left;verticalAlign=middle;spacingLeft=4;spacingRight=4;overflow=hidden;rotatable=0;points=[];portConstraint=eastwest;part=1;fontSize=12;" vertex="1" connectable="0" parent="-qnN5XRqpwDW-Cq90tK5-213">
          <mxGeometry width="120" height="30" as="geometry" />
        </mxCell>
        <mxCell id="-qnN5XRqpwDW-Cq90tK5-217" value="location" style="swimlane;fontStyle=0;childLayout=stackLayout;horizontal=1;startSize=26;fillColor=#e0e0e0;horizontalStack=0;resizeParent=1;resizeParentMax=0;resizeLast=0;collapsible=1;marginBottom=0;swimlaneFillColor=#ffffff;align=center;fontSize=14;" vertex="1" parent="1">
          <mxGeometry x="40" y="760" width="120" height="108" as="geometry">
            <mxRectangle x="40" y="560" width="80" height="26" as="alternateBounds" />
          </mxGeometry>
        </mxCell>
        <mxCell id="-qnN5XRqpwDW-Cq90tK5-218" value="id" style="shape=partialRectangle;top=0;left=0;right=0;bottom=1;align=left;verticalAlign=middle;fillColor=none;spacingLeft=34;spacingRight=4;overflow=hidden;rotatable=0;points=[[0,0.5],[1,0.5]];portConstraint=eastwest;dropTarget=0;fontStyle=5;fontSize=12;" vertex="1" parent="-qnN5XRqpwDW-Cq90tK5-217">
          <mxGeometry y="26" width="120" height="30" as="geometry" />
        </mxCell>
        <mxCell id="-qnN5XRqpwDW-Cq90tK5-219" value="PK" style="shape=partialRectangle;top=0;left=0;bottom=0;fillColor=none;align=left;verticalAlign=middle;spacingLeft=4;spacingRight=4;overflow=hidden;rotatable=0;points=[];portConstraint=eastwest;part=1;fontSize=12;" vertex="1" connectable="0" parent="-qnN5XRqpwDW-Cq90tK5-218">
          <mxGeometry width="120" height="30" as="geometry" />
        </mxCell>
        <mxCell id="-qnN5XRqpwDW-Cq90tK5-220" value="name" style="shape=partialRectangle;top=0;left=0;right=0;bottom=0;align=left;verticalAlign=top;fillColor=none;spacingLeft=34;spacingRight=4;overflow=hidden;rotatable=0;points=[[0,0.5],[1,0.5]];portConstraint=eastwest;dropTarget=0;fontSize=12;" vertex="1" parent="-qnN5XRqpwDW-Cq90tK5-217">
          <mxGeometry y="56" width="120" height="26" as="geometry" />
        </mxCell>
        <mxCell id="-qnN5XRqpwDW-Cq90tK5-221" value="" style="shape=partialRectangle;top=0;left=0;bottom=0;fillColor=none;align=left;verticalAlign=top;spacingLeft=4;spacingRight=4;overflow=hidden;rotatable=0;points=[];portConstraint=eastwest;part=1;fontSize=12;" vertex="1" connectable="0" parent="-qnN5XRqpwDW-Cq90tK5-220">
          <mxGeometry width="120" height="26" as="geometry" />
        </mxCell>
        <mxCell id="-qnN5XRqpwDW-Cq90tK5-222" value="adress" style="shape=partialRectangle;top=0;left=0;right=0;bottom=0;align=left;verticalAlign=top;fillColor=none;spacingLeft=34;spacingRight=4;overflow=hidden;rotatable=0;points=[[0,0.5],[1,0.5]];portConstraint=eastwest;dropTarget=0;fontSize=12;" vertex="1" parent="-qnN5XRqpwDW-Cq90tK5-217">
          <mxGeometry y="82" width="120" height="26" as="geometry" />
        </mxCell>
        <mxCell id="-qnN5XRqpwDW-Cq90tK5-223" value="" style="shape=partialRectangle;top=0;left=0;bottom=0;fillColor=none;align=left;verticalAlign=top;spacingLeft=4;spacingRight=4;overflow=hidden;rotatable=0;points=[];portConstraint=eastwest;part=1;fontSize=12;" vertex="1" connectable="0" parent="-qnN5XRqpwDW-Cq90tK5-222">
          <mxGeometry width="120" height="26" as="geometry" />
        </mxCell>
        <mxCell id="-qnN5XRqpwDW-Cq90tK5-224" value="Order" style="swimlane;fontStyle=0;childLayout=stackLayout;horizontal=1;startSize=26;fillColor=#e0e0e0;horizontalStack=0;resizeParent=1;resizeParentMax=0;resizeLast=0;collapsible=1;marginBottom=0;swimlaneFillColor=#ffffff;align=center;fontSize=14;rounded=0;" vertex="1" parent="1">
          <mxGeometry x="279" y="840" width="120" height="150" as="geometry">
            <mxRectangle x="240" y="840" width="70" height="26" as="alternateBounds" />
          </mxGeometry>
        </mxCell>
        <mxCell id="-qnN5XRqpwDW-Cq90tK5-225" value="orderID" style="shape=partialRectangle;top=0;left=0;right=0;bottom=1;align=left;verticalAlign=middle;fillColor=none;spacingLeft=34;spacingRight=4;overflow=hidden;rotatable=0;points=[[0,0.5],[1,0.5]];portConstraint=eastwest;dropTarget=0;fontStyle=5;fontSize=12;" vertex="1" parent="-qnN5XRqpwDW-Cq90tK5-224">
          <mxGeometry y="26" width="120" height="24" as="geometry" />
        </mxCell>
        <mxCell id="-qnN5XRqpwDW-Cq90tK5-226" value="PK" style="shape=partialRectangle;top=0;left=0;bottom=0;fillColor=none;align=left;verticalAlign=middle;spacingLeft=4;spacingRight=4;overflow=hidden;rotatable=0;points=[];portConstraint=eastwest;part=1;fontSize=12;" vertex="1" connectable="0" parent="-qnN5XRqpwDW-Cq90tK5-225">
          <mxGeometry width="120" height="24" as="geometry" />
        </mxCell>
        <mxCell id="-qnN5XRqpwDW-Cq90tK5-227" value="purchaseID" style="shape=partialRectangle;top=0;left=0;right=0;bottom=0;align=left;verticalAlign=top;fillColor=none;spacingLeft=34;spacingRight=4;overflow=hidden;rotatable=0;points=[[0,0.5],[1,0.5]];portConstraint=eastwest;dropTarget=0;fontSize=12;" vertex="1" parent="-qnN5XRqpwDW-Cq90tK5-224">
          <mxGeometry y="50" width="120" height="20" as="geometry" />
        </mxCell>
        <mxCell id="-qnN5XRqpwDW-Cq90tK5-228" value="" style="shape=partialRectangle;top=0;left=0;bottom=0;fillColor=none;align=left;verticalAlign=top;spacingLeft=4;spacingRight=4;overflow=hidden;rotatable=0;points=[];portConstraint=eastwest;part=1;fontSize=12;" vertex="1" connectable="0" parent="-qnN5XRqpwDW-Cq90tK5-227">
          <mxGeometry width="120" height="20" as="geometry" />
        </mxCell>
        <mxCell id="-qnN5XRqpwDW-Cq90tK5-229" value="description" style="shape=partialRectangle;top=0;left=0;right=0;bottom=0;align=left;verticalAlign=top;fillColor=none;spacingLeft=34;spacingRight=4;overflow=hidden;rotatable=0;points=[[0,0.5],[1,0.5]];portConstraint=eastwest;dropTarget=0;fontSize=12;" vertex="1" parent="-qnN5XRqpwDW-Cq90tK5-224">
          <mxGeometry y="70" width="120" height="20" as="geometry" />
        </mxCell>
        <mxCell id="-qnN5XRqpwDW-Cq90tK5-230" value="" style="shape=partialRectangle;top=0;left=0;bottom=0;fillColor=none;align=left;verticalAlign=top;spacingLeft=4;spacingRight=4;overflow=hidden;rotatable=0;points=[];portConstraint=eastwest;part=1;fontSize=12;" vertex="1" connectable="0" parent="-qnN5XRqpwDW-Cq90tK5-229">
          <mxGeometry width="120" height="20" as="geometry" />
        </mxCell>
        <mxCell id="-qnN5XRqpwDW-Cq90tK5-231" value="orderDateTime" style="shape=partialRectangle;top=0;left=0;right=0;bottom=0;align=left;verticalAlign=top;fillColor=none;spacingLeft=34;spacingRight=4;overflow=hidden;rotatable=0;points=[[0,0.5],[1,0.5]];portConstraint=eastwest;dropTarget=0;fontSize=12;" vertex="1" parent="-qnN5XRqpwDW-Cq90tK5-224">
          <mxGeometry y="90" width="120" height="20" as="geometry" />
        </mxCell>
        <mxCell id="-qnN5XRqpwDW-Cq90tK5-232" value="" style="shape=partialRectangle;top=0;left=0;bottom=0;fillColor=none;align=left;verticalAlign=top;spacingLeft=4;spacingRight=4;overflow=hidden;rotatable=0;points=[];portConstraint=eastwest;part=1;fontSize=12;" vertex="1" connectable="0" parent="-qnN5XRqpwDW-Cq90tK5-231">
          <mxGeometry width="120" height="20" as="geometry" />
        </mxCell>
        <mxCell id="-qnN5XRqpwDW-Cq90tK5-233" value="PayDate" style="shape=partialRectangle;top=0;left=0;right=0;bottom=0;align=left;verticalAlign=top;fillColor=none;spacingLeft=34;spacingRight=4;overflow=hidden;rotatable=0;points=[[0,0.5],[1,0.5]];portConstraint=eastwest;dropTarget=0;fontSize=12;" vertex="1" parent="-qnN5XRqpwDW-Cq90tK5-224">
          <mxGeometry y="110" width="120" height="20" as="geometry" />
        </mxCell>
        <mxCell id="-qnN5XRqpwDW-Cq90tK5-234" value="" style="shape=partialRectangle;top=0;left=0;bottom=0;fillColor=none;align=left;verticalAlign=top;spacingLeft=4;spacingRight=4;overflow=hidden;rotatable=0;points=[];portConstraint=eastwest;part=1;fontSize=12;" vertex="1" connectable="0" parent="-qnN5XRqpwDW-Cq90tK5-233">
          <mxGeometry width="120" height="20" as="geometry" />
        </mxCell>
        <mxCell id="-qnN5XRqpwDW-Cq90tK5-235" value="notes" style="shape=partialRectangle;top=0;left=0;right=0;bottom=0;align=left;verticalAlign=top;fillColor=none;spacingLeft=34;spacingRight=4;overflow=hidden;rotatable=0;points=[[0,0.5],[1,0.5]];portConstraint=eastwest;dropTarget=0;fontSize=12;" vertex="1" parent="-qnN5XRqpwDW-Cq90tK5-224">
          <mxGeometry y="130" width="120" height="20" as="geometry" />
        </mxCell>
        <mxCell id="-qnN5XRqpwDW-Cq90tK5-236" value="" style="shape=partialRectangle;top=0;left=0;bottom=0;fillColor=none;align=left;verticalAlign=top;spacingLeft=4;spacingRight=4;overflow=hidden;rotatable=0;points=[];portConstraint=eastwest;part=1;fontSize=12;" vertex="1" connectable="0" parent="-qnN5XRqpwDW-Cq90tK5-235">
          <mxGeometry width="120" height="20" as="geometry" />
        </mxCell>
        <mxCell id="-qnN5XRqpwDW-Cq90tK5-237" value="business" style="swimlane;fontStyle=0;childLayout=stackLayout;horizontal=1;startSize=30;fillColor=#e0e0e0;horizontalStack=0;resizeParent=1;resizeParentMax=0;resizeLast=0;collapsible=1;marginBottom=0;swimlaneFillColor=#ffffff;align=center;fontSize=14;" vertex="1" parent="1">
          <mxGeometry x="480" y="758" width="120" height="86" as="geometry">
            <mxRectangle x="520" y="680" width="90" height="30" as="alternateBounds" />
          </mxGeometry>
        </mxCell>
        <mxCell id="-qnN5XRqpwDW-Cq90tK5-238" value="id" style="shape=partialRectangle;top=0;left=0;right=0;bottom=1;align=left;verticalAlign=middle;fillColor=none;spacingLeft=34;spacingRight=4;overflow=hidden;rotatable=0;points=[[0,0.5],[1,0.5]];portConstraint=eastwest;dropTarget=0;fontStyle=5;fontSize=12;" vertex="1" parent="-qnN5XRqpwDW-Cq90tK5-237">
          <mxGeometry y="30" width="120" height="30" as="geometry" />
        </mxCell>
        <mxCell id="-qnN5XRqpwDW-Cq90tK5-239" value="PK" style="shape=partialRectangle;top=0;left=0;bottom=0;fillColor=none;align=left;verticalAlign=middle;spacingLeft=4;spacingRight=4;overflow=hidden;rotatable=0;points=[];portConstraint=eastwest;part=1;fontSize=12;" vertex="1" connectable="0" parent="-qnN5XRqpwDW-Cq90tK5-238">
          <mxGeometry width="120" height="30" as="geometry" />
        </mxCell>
        <mxCell id="-qnN5XRqpwDW-Cq90tK5-240" value="name" style="shape=partialRectangle;top=0;left=0;right=0;bottom=0;align=left;verticalAlign=top;fillColor=none;spacingLeft=34;spacingRight=4;overflow=hidden;rotatable=0;points=[[0,0.5],[1,0.5]];portConstraint=eastwest;dropTarget=0;fontSize=12;" vertex="1" parent="-qnN5XRqpwDW-Cq90tK5-237">
          <mxGeometry y="60" width="120" height="26" as="geometry" />
        </mxCell>
        <mxCell id="-qnN5XRqpwDW-Cq90tK5-241" value="" style="shape=partialRectangle;top=0;left=0;bottom=0;fillColor=none;align=left;verticalAlign=top;spacingLeft=4;spacingRight=4;overflow=hidden;rotatable=0;points=[];portConstraint=eastwest;part=1;fontSize=12;" vertex="1" connectable="0" parent="-qnN5XRqpwDW-Cq90tK5-240">
          <mxGeometry width="120" height="26" as="geometry" />
        </mxCell>
        <mxCell id="-qnN5XRqpwDW-Cq90tK5-242" value="User" style="swimlane;fontStyle=0;childLayout=stackLayout;horizontal=1;startSize=26;fillColor=#e0e0e0;horizontalStack=0;resizeParent=1;resizeParentMax=0;resizeLast=0;collapsible=1;marginBottom=0;swimlaneFillColor=#ffffff;align=center;fontSize=14;" vertex="1" parent="1">
          <mxGeometry x="600" y="277" width="120" height="134" as="geometry">
            <mxRectangle x="640" y="277" width="60" height="26" as="alternateBounds" />
          </mxGeometry>
        </mxCell>
        <mxCell id="-qnN5XRqpwDW-Cq90tK5-243" value="id" style="shape=partialRectangle;top=0;left=0;right=0;bottom=1;align=left;verticalAlign=middle;fillColor=none;spacingLeft=34;spacingRight=4;overflow=hidden;rotatable=0;points=[[0,0.5],[1,0.5]];portConstraint=eastwest;dropTarget=0;fontStyle=5;fontSize=12;" vertex="1" parent="-qnN5XRqpwDW-Cq90tK5-242">
          <mxGeometry y="26" width="120" height="30" as="geometry" />
        </mxCell>
        <mxCell id="-qnN5XRqpwDW-Cq90tK5-244" value="PK" style="shape=partialRectangle;top=0;left=0;bottom=0;fillColor=none;align=left;verticalAlign=middle;spacingLeft=4;spacingRight=4;overflow=hidden;rotatable=0;points=[];portConstraint=eastwest;part=1;fontSize=12;" vertex="1" connectable="0" parent="-qnN5XRqpwDW-Cq90tK5-243">
          <mxGeometry width="120" height="30" as="geometry" />
        </mxCell>
        <mxCell id="-qnN5XRqpwDW-Cq90tK5-245" value="name" style="shape=partialRectangle;top=0;left=0;right=0;bottom=0;align=left;verticalAlign=top;fillColor=none;spacingLeft=34;spacingRight=4;overflow=hidden;rotatable=0;points=[[0,0.5],[1,0.5]];portConstraint=eastwest;dropTarget=0;fontSize=12;" vertex="1" parent="-qnN5XRqpwDW-Cq90tK5-242">
          <mxGeometry y="56" width="120" height="26" as="geometry" />
        </mxCell>
        <mxCell id="-qnN5XRqpwDW-Cq90tK5-246" value="" style="shape=partialRectangle;top=0;left=0;bottom=0;fillColor=none;align=left;verticalAlign=top;spacingLeft=4;spacingRight=4;overflow=hidden;rotatable=0;points=[];portConstraint=eastwest;part=1;fontSize=12;" vertex="1" connectable="0" parent="-qnN5XRqpwDW-Cq90tK5-245">
          <mxGeometry width="120" height="26" as="geometry" />
        </mxCell>
        <mxCell id="-qnN5XRqpwDW-Cq90tK5-247" value="password" style="shape=partialRectangle;top=0;left=0;right=0;bottom=0;align=left;verticalAlign=top;fillColor=none;spacingLeft=34;spacingRight=4;overflow=hidden;rotatable=0;points=[[0,0.5],[1,0.5]];portConstraint=eastwest;dropTarget=0;fontSize=12;" vertex="1" parent="-qnN5XRqpwDW-Cq90tK5-242">
          <mxGeometry y="82" width="120" height="26" as="geometry" />
        </mxCell>
        <mxCell id="-qnN5XRqpwDW-Cq90tK5-248" value="" style="shape=partialRectangle;top=0;left=0;bottom=0;fillColor=none;align=left;verticalAlign=top;spacingLeft=4;spacingRight=4;overflow=hidden;rotatable=0;points=[];portConstraint=eastwest;part=1;fontSize=12;" vertex="1" connectable="0" parent="-qnN5XRqpwDW-Cq90tK5-247">
          <mxGeometry width="120" height="26" as="geometry" />
        </mxCell>
        <object label="rank" email="" id="-qnN5XRqpwDW-Cq90tK5-249">
          <mxCell style="shape=partialRectangle;top=0;left=0;right=0;bottom=0;align=left;verticalAlign=top;fillColor=none;spacingLeft=34;spacingRight=4;overflow=hidden;rotatable=0;points=[[0,0.5],[1,0.5]];portConstraint=eastwest;dropTarget=0;fontSize=12;" vertex="1" parent="-qnN5XRqpwDW-Cq90tK5-242">
            <mxGeometry y="108" width="120" height="26" as="geometry" />
          </mxCell>
        </object>
        <mxCell id="-qnN5XRqpwDW-Cq90tK5-250" value="" style="shape=partialRectangle;top=0;left=0;bottom=0;fillColor=none;align=left;verticalAlign=top;spacingLeft=4;spacingRight=4;overflow=hidden;rotatable=0;points=[];portConstraint=eastwest;part=1;fontSize=12;" vertex="1" connectable="0" parent="-qnN5XRqpwDW-Cq90tK5-249">
          <mxGeometry width="120" height="26" as="geometry" />
        </mxCell>
        <mxCell id="-qnN5XRqpwDW-Cq90tK5-110" value="adress" style="swimlane;fontStyle=0;childLayout=stackLayout;horizontal=1;startSize=26;fillColor=#e0e0e0;horizontalStack=0;resizeParent=1;resizeParentMax=0;resizeLast=0;collapsible=1;marginBottom=0;swimlaneFillColor=#ffffff;align=center;fontSize=14;" vertex="1" parent="1">
          <mxGeometry x="40" y="1040" width="120" height="120" as="geometry" />
        </mxCell>
        <mxCell id="-qnN5XRqpwDW-Cq90tK5-111" value="street&#xa;number&#xa;town&#xa;zipCode&#xa;state&#xa;country&#xa;" style="shape=partialRectangle;top=0;left=0;right=0;bottom=0;align=left;verticalAlign=top;fillColor=none;spacingLeft=34;spacingRight=4;overflow=hidden;rotatable=0;points=[[0,0.5],[1,0.5]];portConstraint=eastwest;dropTarget=0;fontSize=12;" vertex="1" parent="-qnN5XRqpwDW-Cq90tK5-110">
          <mxGeometry y="26" width="120" height="94" as="geometry" />
        </mxCell>
        <mxCell id="-qnN5XRqpwDW-Cq90tK5-112" value="rank" style="swimlane;fontStyle=0;childLayout=stackLayout;horizontal=1;startSize=26;fillColor=#e0e0e0;horizontalStack=0;resizeParent=1;resizeParentMax=0;resizeLast=0;collapsible=1;marginBottom=0;swimlaneFillColor=#ffffff;align=center;fontSize=14;" vertex="1" parent="1">
          <mxGeometry x="200" y="1040" width="120" height="120" as="geometry" />
        </mxCell>
        <mxCell id="-qnN5XRqpwDW-Cq90tK5-113" value="Seller&#xa;Tailor&#xa;Sailor&#xa;Andrea&#xa;Björn&#xa;Accountant" style="shape=partialRectangle;top=0;left=0;right=0;bottom=0;align=left;verticalAlign=top;fillColor=none;spacingLeft=34;spacingRight=4;overflow=hidden;rotatable=0;points=[[0,0.5],[1,0.5]];portConstraint=eastwest;dropTarget=0;fontSize=12;" vertex="1" parent="-qnN5XRqpwDW-Cq90tK5-112">
          <mxGeometry y="26" width="120" height="94" as="geometry" />
        </mxCell>
        <mxCell id="-qnN5XRqpwDW-Cq90tK5-131" value="meetingType" style="swimlane;fontStyle=0;childLayout=stackLayout;horizontal=1;startSize=26;fillColor=#e0e0e0;horizontalStack=0;resizeParent=1;resizeParentMax=0;resizeLast=0;collapsible=1;marginBottom=0;swimlaneFillColor=#ffffff;align=center;fontSize=14;" vertex="1" parent="1">
          <mxGeometry x="680" y="890" width="120" height="120" as="geometry" />
        </mxCell>
        <mxCell id="-qnN5XRqpwDW-Cq90tK5-132" value="Internal&#xa;weddingDress    &#xa;eveningDress&#xa;suit&#xa;modification&#xa;tryOut&#xa;" style="shape=partialRectangle;top=0;left=0;right=0;bottom=0;align=left;verticalAlign=top;fillColor=none;spacingLeft=34;spacingRight=4;overflow=hidden;rotatable=0;points=[[0,0.5],[1,0.5]];portConstraint=eastwest;dropTarget=0;fontSize=12;" vertex="1" parent="-qnN5XRqpwDW-Cq90tK5-131">
          <mxGeometry y="26" width="120" height="94" as="geometry" />
        </mxCell>
        <mxCell id="-qnN5XRqpwDW-Cq90tK5-133" value="meetingState" style="swimlane;fontStyle=0;childLayout=stackLayout;horizontal=1;startSize=26;fillColor=#e0e0e0;horizontalStack=0;resizeParent=1;resizeParentMax=0;resizeLast=0;collapsible=1;marginBottom=0;swimlaneFillColor=#ffffff;align=center;fontSize=14;" vertex="1" parent="1">
          <mxGeometry x="680" y="1010" width="120" height="80" as="geometry" />
        </mxCell>
        <mxCell id="-qnN5XRqpwDW-Cq90tK5-134" value="pending&#xa;closed&#xa;ficxed" style="shape=partialRectangle;top=0;left=0;right=0;bottom=0;align=left;verticalAlign=top;fillColor=none;spacingLeft=34;spacingRight=4;overflow=hidden;rotatable=0;points=[[0,0.5],[1,0.5]];portConstraint=eastwest;dropTarget=0;fontSize=12;" vertex="1" parent="-qnN5XRqpwDW-Cq90tK5-133">
          <mxGeometry y="26" width="120" height="54" as="geometry" />
        </mxCell>
        <mxCell id="-qnN5XRqpwDW-Cq90tK5-135" value="meetingDateTime" style="swimlane;fontStyle=0;childLayout=stackLayout;horizontal=1;startSize=26;fillColor=#e0e0e0;horizontalStack=0;resizeParent=1;resizeParentMax=0;resizeLast=0;collapsible=1;marginBottom=0;swimlaneFillColor=#ffffff;align=center;fontSize=14;" vertex="1" parent="1">
          <mxGeometry x="680" y="1090" width="120" height="70" as="geometry" />
        </mxCell>
        <mxCell id="-qnN5XRqpwDW-Cq90tK5-136" value="fixed&#xa;range" style="shape=partialRectangle;top=0;left=0;right=0;bottom=0;align=left;verticalAlign=top;fillColor=none;spacingLeft=34;spacingRight=4;overflow=hidden;rotatable=0;points=[[0,0.5],[1,0.5]];portConstraint=eastwest;dropTarget=0;fontSize=12;" vertex="1" parent="-qnN5XRqpwDW-Cq90tK5-135">
          <mxGeometry y="26" width="120" height="44" as="geometry" />
        </mxCell>
        <mxCell id="-qnN5XRqpwDW-Cq90tK5-215" value="articleState" style="swimlane;fontStyle=0;childLayout=stackLayout;horizontal=1;startSize=26;fillColor=#e0e0e0;horizontalStack=0;resizeParent=1;resizeParentMax=0;resizeLast=0;collapsible=1;marginBottom=0;swimlaneFillColor=#ffffff;align=center;fontSize=14;" vertex="1" parent="1">
          <mxGeometry x="520" y="1010" width="120" height="150" as="geometry" />
        </mxCell>
        <mxCell id="-qnN5XRqpwDW-Cq90tK5-216" value="Ordered&#xa;Shipped&#xa;Available&#xa;Reserved&#xa;Selled&#xa;Tailoring&#xa;Ready&#xa;Deliverd" style="shape=partialRectangle;top=0;left=0;right=0;bottom=0;align=left;verticalAlign=top;fillColor=none;spacingLeft=34;spacingRight=4;overflow=hidden;rotatable=0;points=[[0,0.5],[1,0.5]];portConstraint=eastwest;dropTarget=0;fontSize=12;" vertex="1" parent="-qnN5XRqpwDW-Cq90tK5-215">
          <mxGeometry y="26" width="120" height="124" as="geometry" />
        </mxCell>
        <mxCell id="-qnN5XRqpwDW-Cq90tK5-168" value="contractKind" style="swimlane;fontStyle=0;childLayout=stackLayout;horizontal=1;startSize=26;fillColor=#e0e0e0;horizontalStack=0;resizeParent=1;resizeParentMax=0;resizeLast=0;collapsible=1;marginBottom=0;swimlaneFillColor=#ffffff;align=center;fontSize=14;" vertex="1" parent="1">
          <mxGeometry x="360" y="1020" width="120" height="140" as="geometry" />
        </mxCell>
        <mxCell id="-qnN5XRqpwDW-Cq90tK5-169" value="tailor&#xa;articles" style="shape=partialRectangle;top=0;left=0;right=0;bottom=0;align=left;verticalAlign=top;fillColor=none;spacingLeft=34;spacingRight=4;overflow=hidden;rotatable=0;points=[[0,0.5],[1,0.5]];portConstraint=eastwest;dropTarget=0;fontSize=12;" vertex="1" parent="-qnN5XRqpwDW-Cq90tK5-168">
          <mxGeometry y="26" width="120" height="44" as="geometry" />
        </mxCell>
        <mxCell id="-qnN5XRqpwDW-Cq90tK5-170" value="contractState" style="swimlane;fontStyle=0;childLayout=stackLayout;horizontal=1;startSize=26;fillColor=#e0e0e0;horizontalStack=0;resizeParent=1;resizeParentMax=0;resizeLast=0;collapsible=1;marginBottom=0;swimlaneFillColor=#ffffff;align=center;fontSize=14;" vertex="1" parent="-qnN5XRqpwDW-Cq90tK5-168">
          <mxGeometry y="70" width="120" height="70" as="geometry" />
        </mxCell>
        <mxCell id="-qnN5XRqpwDW-Cq90tK5-171" value="open&#xa;closed" style="shape=partialRectangle;top=0;left=0;right=0;bottom=0;align=left;verticalAlign=top;fillColor=none;spacingLeft=34;spacingRight=4;overflow=hidden;rotatable=0;points=[[0,0.5],[1,0.5]];portConstraint=eastwest;dropTarget=0;fontSize=12;" vertex="1" parent="-qnN5XRqpwDW-Cq90tK5-170">
          <mxGeometry y="26" width="120" height="44" as="geometry" />
        </mxCell>
      </root>
    </mxGraphModel>
  </diagram>
</mxfile>
